<?xml version="1.0" encoding="UTF-8" standalone="no"?>
<!-- Created with Inkscape (http://www.inkscape.org/) -->

<svg
   width="72.650772mm"
   height="41.771156mm"
   viewBox="0 0 72.650772 41.771156"
   version="1.1"
   id="svg1"
   xml:space="preserve"
   inkscape:version="1.3.2 (091e20e, 2023-11-25, custom)"
   sodipodi:docname="dibujo.svg"
   xmlns:inkscape="http://www.inkscape.org/namespaces/inkscape"
   xmlns:sodipodi="http://sodipodi.sourceforge.net/DTD/sodipodi-0.dtd"
   xmlns="http://www.w3.org/2000/svg"
   xmlns:svg="http://www.w3.org/2000/svg"><sodipodi:namedview
     id="namedview1"
     pagecolor="#ffffff"
     bordercolor="#000000"
     borderopacity="0.25"
     inkscape:showpageshadow="2"
     inkscape:pageopacity="0.0"
     inkscape:pagecheckerboard="0"
     inkscape:deskcolor="#d1d1d1"
     inkscape:document-units="mm"
     inkscape:zoom="0.74742565"
     inkscape:cx="134.46154"
     inkscape:cy="296.35055"
     inkscape:window-width="1920"
     inkscape:window-height="1017"
     inkscape:window-x="-8"
     inkscape:window-y="-8"
     inkscape:window-maximized="1"
     inkscape:current-layer="layer1" /><defs
     id="defs1"><linearGradient
       id="linearGradient6"
       inkscape:swatch="gradient"><stop
         style="stop-color:#ff0000;stop-opacity:1;"
         offset="0"
         id="stop7" /><stop
         style="stop-color:#ff0000;stop-opacity:0;"
         offset="1"
         id="stop8" /></linearGradient></defs><g
     inkscape:label="Capa 1"
     inkscape:groupmode="layer"
     id="layer1"
     transform="translate(-69.382598,-70.090584)"><path
       style="fill:#ff0000;fill-opacity:1;stroke:none"
       d="m 70.302107,110.42487 c 0,-0.35081 4.11574,-0.39688 35.454163,-0.39688 h 35.45417 V 91.110281 c 0,-12.43541 0.0907,-18.91771 0.26458,-18.91771 0.17398,0 0.26459,6.61459 0.26459,19.31459 v 19.314579 h -35.71875 c -31.573615,0 -35.718753,-0.0461 -35.718753,-0.39687 z m 12.053862,-2.98329 c -0.08119,-0.0812 -0.147612,-1.43746 -0.147612,-3.01394 v -2.86632 h 1.5814 c 1.394118,0 1.632637,0.0782 2.01404,0.66029 0.303251,0.46283 0.380798,0.93663 0.259297,1.58429 -0.186825,0.99586 -0.775535,1.45959 -1.852968,1.45959 -0.679179,0 -0.733194,0.10572 -0.768466,1.50412 -0.01364,0.54082 -0.756845,1.00081 -1.085691,0.67197 z m 2.365929,-4.02817 c 0,-0.86801 -1.059325,-1.09509 -1.31727,-0.28238 -0.231627,0.7298 0.05536,1.12366 0.746924,1.02511 0.410307,-0.0585 0.570346,-0.26688 0.570346,-0.74273 z m 6.850849,3.92332 c -0.09552,-0.1549 -0.200174,-4.54418 -0.129815,-5.44468 0.01421,-0.1819 0.263966,-0.33073 0.555008,-0.33073 0.489969,0 0.529167,0.17639 0.529167,2.38125 v 2.38125 h 1.209027 c 1.081861,0 1.200134,0.059 1.124479,0.56064 -0.07431,0.49274 -0.27188,0.56484 -1.631413,0.59531 -0.850775,0.0191 -1.596179,-0.0453 -1.656453,-0.14304 z m 7.119776,0.0423 c -1.203084,-0.4845 -1.814329,-3.03778 -1.101673,-4.60189 0.376159,-0.82558 1.885161,-1.57524 2.68216,-1.33248 0.84253,0.25663 1.51451,0.91356 1.51451,1.48058 0,0.59754 -0.85386,0.65646 -1.32291,0.0913 -0.41602,-0.50126 -1.163838,-0.51048 -1.571423,-0.0194 -0.422525,0.50911 -0.425008,2.43706 -0.0038,2.9446 0.44501,0.5362 1.676473,0.38956 1.790783,-0.21325 0.0607,-0.32032 -0.0812,-0.46302 -0.46075,-0.46302 -0.372183,0 -0.548571,-0.17015 -0.548571,-0.52917 0,-0.45077 0.176388,-0.52916 1.190621,-0.52916 h 1.19063 v 1.29277 c 0,1.2102 -0.0575,1.32004 -0.89988,1.71979 -0.99488,0.4721 -1.587677,0.5105 -2.459705,0.15932 z m 7.208777,-0.15424 c -0.23207,-0.23207 -0.60082,-0.76785 -0.81945,-1.19063 -0.59216,-1.14511 -1.17766,-1.00111 -1.17766,0.28965 0,0.96019 -0.0631,1.05834 -0.67997,1.05834 h -0.67998 l 0.0847,-2.84427 0.0847,-2.84427 1.30538,-0.0826 c 1.86368,-0.11797 2.49071,0.1007 2.7142,0.94655 0.23847,0.90253 0.14637,1.39128 -0.3713,1.9704 -0.36568,0.40909 -0.35052,0.54541 0.15617,1.40418 0.30864,0.52312 0.56117,1.12291 0.56117,1.33287 0,0.5079 -0.65205,0.48565 -1.17789,-0.0402 z m -0.27015,-3.5584 c 0.26129,-0.42279 -0.39315,-1.04674 -1.0979,-1.04674 -0.49461,0 -0.62906,0.14137 -0.62906,0.66146 0,0.55561 0.12451,0.66145 0.77814,0.66145 0.42797,0 0.85494,-0.12427 0.94882,-0.27617 z m 3.16783,3.66077 c -1.189,-0.68189 -1.71855,-2.44643 -1.20299,-4.00858 0.40315,-1.22157 1.117,-1.80345 2.2519,-1.83562 2.60226,-0.0738 3.54402,4.55478 1.17592,5.77937 -0.88525,0.45778 -1.508,0.47593 -2.22483,0.0648 z m 1.93146,-1.32085 c 0.17463,-0.17462 0.3175,-0.86518 0.3175,-1.53458 0,-1.34912 -0.33518,-1.85208 -1.23423,-1.85208 -0.71004,0 -1.14702,0.70559 -1.14702,1.85208 0,0.4557 0.12325,1.05884 0.27389,1.34031 0.30616,0.57206 1.30379,0.68035 1.78986,0.19427 z m 3.02391,1.46334 c -0.18496,-0.0744 -0.50925,-0.46977 -0.72063,-0.87854 -0.33955,-0.65661 -0.33677,-0.78272 0.0238,-1.082 0.34331,-0.28492 0.50014,-0.22344 0.98671,0.38677 0.4007,0.50253 0.72038,0.6711 1.04005,0.54843 0.76477,-0.29347 0.54935,-1.09645 -0.38118,-1.42084 -1.19361,-0.41609 -1.80312,-1.04978 -1.80312,-1.87466 0,-1.13322 1.30501,-1.99947 2.54381,-1.68855 0.64691,0.16237 1.55375,1.47156 1.238,1.7873 -0.31094,0.31094 -1.07896,0.16687 -1.23165,-0.23104 -0.16497,-0.42991 -1.10527,-0.54369 -1.341,-0.16227 -0.19533,0.31605 0.35325,0.74094 1.24589,0.96498 1.45617,0.36548 1.93044,1.90343 0.96533,3.13036 -0.53161,0.67584 -1.62707,0.89785 -2.56605,0.52006 z m 4.38679,-0.62651 c -0.75894,-0.75895 -0.79759,-0.89777 -0.69566,-2.49857 0.12142,-1.90694 0.57887,-2.63073 1.81951,-2.87885 1.73196,-0.3464 2.89545,0.95131 2.89545,3.22947 0,1.07831 -0.13483,1.45242 -0.76761,2.12981 -1.03383,1.10671 -2.15685,1.11298 -3.25169,0.0181 z m 2.39783,-0.87527 c 0.55939,-0.67402 0.65318,-1.98077 0.19262,-2.68367 -0.77766,-1.18686 -1.84724,-0.75442 -2.17391,0.87893 -0.30032,1.50162 1.14228,2.81568 1.98129,1.80474 z m 3.00478,1.35337 c -0.68952,-0.33231 -1.06062,-1.42595 -0.62997,-1.8566 0.21195,-0.21195 0.4725,-0.0957 0.95691,0.42699 0.5524,0.59606 0.75613,0.66983 1.19749,0.43362 0.89918,-0.48123 0.52398,-1.11703 -0.86487,-1.46561 -2.22039,-0.55728 -1.79841,-3.44127 0.49401,-3.37629 0.96617,0.0274 1.96104,0.75716 1.96104,1.4385 0,0.47057 -0.81851,0.55116 -1.28746,0.12676 -0.53268,-0.48207 -1.24501,-0.56187 -1.48916,-0.16682 -0.0891,0.14417 0.29082,0.46689 0.84428,0.71714 1.52981,0.69173 1.93234,1.12611 1.93234,2.08523 0,1.50817 -1.61774,2.35848 -3.11461,1.63708 z m -36.837477,-2.84951 v -2.91042 h 1.984375 c 1.807986,0 1.984375,0.047 1.984375,0.52917 0,0.45861 -0.176389,0.52917 -1.322916,0.52917 -1.121605,0 -1.322917,0.0762 -1.322917,0.50086 0,0.52182 0.663429,0.93383 1.084577,0.67354 0.447832,-0.27677 1.296673,0.17853 1.296673,0.69551 0,0.42964 -0.190228,0.51134 -1.190625,0.51134 -1.086497,0 -1.190625,0.0566 -1.190625,0.64696 0,0.58391 0.122245,0.65482 1.254391,0.7276 0.945173,0.0608 1.276065,0.19478 1.342317,0.54367 0.07747,0.40795 -0.150385,0.46302 -1.915849,0.46302 h -2.003776 z m 8.73125,-0.0184 c 0,-2.88596 0.0087,-2.92758 0.595313,-2.84427 0.569702,0.0809 0.598543,0.20691 0.670409,2.92882 l 0.0751,2.84427 h -0.67041 -0.67041 z m -8.466666,-8.875959 v -3.07353 l 1.751778,0.11154 c 1.324623,0.0844 1.840753,0.23323 2.116667,0.61056 0.502972,0.68785 0.456619,1.54888 -0.12184,2.26325 -0.476014,0.58785 -0.472435,0.62666 0.162612,1.76288 0.357137,0.63899 0.581709,1.22943 0.49905,1.31209 -0.366213,0.36621 -1.454373,-0.22787 -1.757406,-0.95946 -0.179599,-0.43359 -0.501401,-0.93346 -0.715117,-1.11083 -0.509923,-0.4232 -0.867758,0.10827 -0.87336,1.29713 -0.0032,0.68216 -0.113429,0.8599 -0.533218,0.8599 -0.498798,0 -0.529166,-0.17639 -0.529166,-3.07353 z m 2.535181,-0.63064 c 0.206379,0 0.375235,-0.23812 0.375235,-0.52917 0,-0.40921 -0.176389,-0.52916 -0.778135,-0.52916 -0.427974,0 -0.845079,0.10832 -0.9269,0.2407 -0.255029,0.41265 0.163561,1.12117 0.570192,0.96513 0.211405,-0.0811 0.553228,-0.1475 0.759608,-0.1475 z m 2.480878,3.43958 c -0.0061,-0.14552 -0.01103,-1.39567 -0.01103,-2.77812 0,-1.38245 0.005,-2.63804 0.01103,-2.79021 0.0069,-0.17217 0.685637,-0.24712 1.796961,-0.19844 1.583471,0.0694 1.785938,0.13822 1.785938,0.6074 0,0.53514 -0.10722,0.57605 -1.653646,0.63094 -0.673334,0.0239 -0.859896,0.14533 -0.859896,0.55968 0,0.45078 0.176389,0.52917 1.190625,0.52917 1.014236,0 1.190625,0.0784 1.190625,0.52917 0,0.45077 -0.176389,0.52916 -1.190625,0.52916 -1.146528,0 -1.190625,0.0294 -1.190625,0.79375 0,0.77612 0.0294,0.79375 1.322917,0.79375 1.146528,0 1.322917,0.0706 1.322917,0.52917 0,0.47877 -0.176389,0.52917 -1.852084,0.52917 -1.050984,0 -1.856852,-0.11445 -1.863107,-0.26459 z m 4.773524,-0.26458 c -0.694678,-0.69468 -0.699914,-1.5875 -0.0093,-1.5875 0.285922,0 0.651165,0.24535 0.811652,0.54522 0.352214,0.65812 1.399212,0.60117 1.529652,-0.0832 0.06389,-0.3352 -0.248022,-0.60825 -1.123502,-0.98353 -0.736875,-0.31586 -1.332994,-0.78517 -1.520754,-1.19726 -0.723611,-1.58815 1.923032,-3.02046 3.207605,-1.73589 1.053377,1.05338 0.288749,1.90713 -0.814135,0.90903 -0.486837,-0.44058 -1.287459,-0.33768 -1.287459,0.16548 0,0.15526 0.527406,0.50836 1.172014,0.78467 0.644608,0.27631 1.307377,0.75532 1.472827,1.06445 0.38956,0.72791 0.0946,2.04983 -0.532286,2.38531 -0.833896,0.44629 -2.330626,0.3089 -2.906305,-0.26678 z m 4.29081,-2.44739 c 0.0674,-2.68075 0.12293,-2.97657 0.559,-2.97657 0.43839,0 0.48319,0.25651 0.47361,2.71198 -0.006,1.49159 -0.0153,2.83104 -0.0212,2.97656 -0.006,0.14552 -0.25261,0.26459 -0.54841,0.26459 -0.51329,0 -0.53442,-0.13587 -0.46303,-2.97656 z m 1.85209,0 0.0748,-2.97657 1.54223,0.008 c 2.0314,0.0101 2.54443,0.59894 2.55293,2.93029 0.005,1.35232 -0.0996,1.72888 -0.64294,2.3151 -0.55229,0.59593 -0.86853,0.7001 -2.12534,0.7001 h -1.4765 z m 2.83093,1.08422 c 0.29974,-0.53579 0.33311,-0.94245 0.14114,-1.71979 -0.20701,-0.83824 -0.37995,-1.03287 -0.97903,-1.1018 l -0.72761,-0.0837 v 1.88806 c 0,1.79859 0.0278,1.88405 0.58647,1.80351 0.32256,-0.0465 0.76313,-0.40032 0.97903,-0.78626 z m 2.55055,1.3043 c -0.30149,-0.43044 -0.41188,-1.2511 -0.41188,-3.06211 0,-2.21345 0.0488,-2.46478 0.46302,-2.38591 0.38399,0.0731 0.4856,0.46689 0.59531,2.30706 0.10034,1.68296 0.23878,2.28573 0.57314,2.49559 0.31893,0.20017 0.55673,0.1805 0.85989,-0.0711 0.32133,-0.26668 0.41906,-0.86471 0.41906,-2.56435 0,-2.04017 0.0421,-2.21656 0.52916,-2.21656 0.49334,0 0.52917,0.17639 0.52917,2.60483 0,3.04011 -0.26023,3.48059 -2.05635,3.48059 -0.82504,0 -1.18838,-0.14239 -1.50052,-0.58804 z m 5.46953,0.41095 c -1.06202,-0.4273 -1.50569,-3.63789 -0.67122,-4.85727 0.59749,-0.87309 0.87574,-1.04221 1.72267,-1.04701 1.03628,-0.006 1.96133,0.48846 2.29838,1.2282 0.6768,1.48541 0.13347,4.28889 -0.90872,4.68881 -0.49833,0.19123 -1.95304,0.18365 -2.44111,-0.0127 z m 2.04748,-1.26774 c 0.17642,-0.21258 0.38342,-0.8536 0.45999,-1.4245 0.11042,-0.82326 0.0234,-1.15381 -0.42066,-1.59787 -0.66136,-0.66136 -0.8222,-0.6811 -1.5015,-0.18422 -0.60291,0.441 -0.6844,2.5122 -0.12534,3.18582 0.42651,0.51392 1.17016,0.52365 1.58751,0.0208 z m 2.65444,0.91566 c -0.63702,-0.63702 -0.70202,-1.5875 -0.10855,-1.5875 0.23133,0 0.64059,0.26789 0.90946,0.59531 0.39644,0.48277 0.57953,0.53985 0.96846,0.3019 0.76111,-0.46566 0.56272,-0.94747 -0.54855,-1.3322 -1.31916,-0.45671 -1.79447,-1.06756 -1.61734,-2.07855 0.17217,-0.9827 0.77488,-1.45521 1.85618,-1.45521 0.83286,0 1.97993,0.89128 1.97993,1.53841 0,0.47136 -1.0859,0.37712 -1.45393,-0.12619 -0.19052,-0.26055 -0.49902,-0.3718 -0.75677,-0.27289 -0.73734,0.28294 -0.48895,0.67684 0.82164,1.30296 1.14211,0.54564 1.2644,0.69331 1.34043,1.61856 0.11166,1.35885 -0.49484,2.02457 -1.84446,2.02457 -0.66455,0 -1.20083,-0.1835 -1.5465,-0.52917 z m -25.135413,-8.38428 c -0.780767,-0.2979 -1.329474,-0.97622 -1.598814,-1.97648 -0.53477,-1.98598 0.679613,-4.19131 2.30798,-4.19131 0.643928,0 1.936667,1.05718 1.936667,1.58378 0,0.50536 -0.799442,0.60975 -1.287459,0.1681 -1.003077,-0.90777 -1.887541,-0.24093 -1.887541,1.42312 0,1.71658 1.116273,2.46458 1.905085,1.27656 0.413925,-0.6234 1.269915,-0.52834 1.269915,0.14103 0,0.97789 -1.644831,1.95714 -2.645833,1.5752 z m 40.190573,-0.11196 c -0.88869,-0.32623 -1.37396,-1.25727 -1.39408,-2.6747 -0.0249,-1.75542 0.26429,-2.45152 1.23597,-2.9748 0.7485,-0.4031 1.03168,-0.42964 1.81738,-0.17033 1.149,0.3792 1.67412,1.30108 1.67412,2.939 0,1.56899 -0.5152,2.54308 -1.53263,2.89776 -0.91251,0.3181 -0.88745,0.31833 -1.80076,-0.0169 z m 1.86887,-1.54052 c 0.37314,-0.69722 0.34602,-2.48527 -0.0436,-2.8749 -0.48607,-0.48607 -1.4837,-0.37778 -1.78986,0.19428 -0.15064,0.28147 -0.27389,0.88461 -0.27389,1.34031 0,1.17237 0.43696,1.85208 1.19063,1.85208 0.36476,0 0.76131,-0.22138 0.91673,-0.51177 z m -63.690008,1.23938 c 0.06704,-0.18191 0.386469,-1.16417 0.709851,-2.18282 0.98322,-3.09712 1.092452,-3.30729 1.718924,-3.30729 0.492912,0 0.698816,0.35943 1.402046,2.4474 0.453356,1.34606 0.906032,2.65575 1.005946,2.91041 0.316403,0.80645 -1.050664,0.59968 -1.421884,-0.21506 -0.253818,-0.55707 -0.462072,-0.66331 -1.166949,-0.59531 -0.657138,0.0634 -0.877787,0.22213 -0.942542,0.67808 -0.06231,0.43874 -0.261123,0.59531 -0.755912,0.59531 -0.425707,0 -0.626765,-0.12101 -0.54948,-0.33072 z m 2.845148,-2.29347 c 0,-0.51669 -0.331163,-1.07005 -0.556891,-0.93055 -0.392862,0.24281 -0.265954,1.17349 0.160016,1.17349 0.218281,0 0.396875,-0.10932 0.396875,-0.24294 z m 2.586155,2.29347 c -0.06396,-0.18191 -0.145913,-1.49159 -0.182115,-2.91042 l -0.06582,-2.57969 h 0.682974 0.682975 v 2.38125 2.38125 h 1.190625 c 1.014236,0 1.190625,0.0784 1.190625,0.52917 0,0.47398 -0.176389,0.52916 -1.691485,0.52916 -1.114775,0 -1.731134,-0.11276 -1.807777,-0.33072 z m 4.028428,-2.59646 v -2.92718 l 0.853015,0.0829 c 0.781789,0.076 0.87211,0.18233 1.081711,1.27354 0.339926,1.76969 0.622201,1.8152 0.992612,0.16002 0.319052,-1.42567 0.364818,-1.48294 1.185059,-1.48294 h 0.85319 l -0.01104,2.91042 c -0.0109,2.87257 -0.0191,2.91041 -0.63071,2.91041 -0.566733,0 -0.622637,-0.11866 -0.654427,-1.38906 l -0.03476,-1.38906 -0.267036,1.38906 c -0.227872,1.18534 -0.354407,1.38906 -0.862764,1.38906 -0.502569,0 -0.658144,-0.2379 -0.994861,-1.52135 l -0.399134,-1.52135 -0.02626,1.52135 c -0.02307,1.33621 -0.09066,1.52135 -0.555427,1.52135 -0.49728,0 -0.529167,-0.17638 -0.529167,-2.92718 z m 5.291667,2.71861 c 0,-0.11471 0.396891,-1.39463 0.881979,-2.84427 0.770465,-2.30245 0.963266,-2.64552 1.524884,-2.71338 0.598738,-0.0723 0.709219,0.12306 1.608237,2.84428 l 0.965333,2.92194 h -0.644682 c -0.444209,0 -0.722885,-0.20569 -0.896168,-0.66145 -0.19237,-0.50598 -0.441148,-0.66146 -1.058333,-0.66146 -0.617185,0 -0.865963,0.15548 -1.058333,0.66146 -0.231082,0.60779 -1.322917,0.98157 -1.322917,0.45288 z m 2.806432,-2.59119 c -0.08833,-0.23018 -0.160599,-0.53487 -0.160599,-0.67707 0,-0.14221 -0.119062,-0.18498 -0.264583,-0.095 -0.431218,0.26651 -0.306567,1.19062 0.160599,1.19062 0.279009,0 0.36997,-0.14388 0.264583,-0.41851 z m 7.512318,-0.11065 v -2.91042 h 1.852083 c 1.675697,0 1.852087,0.0504 1.852087,0.52917 0,0.45861 -0.17639,0.52916 -1.32292,0.52916 -1.134107,0 -1.322917,0.0735 -1.322917,0.51467 0,0.42629 0.215827,0.52852 1.256771,0.59532 1.053496,0.0676 1.256766,0.16623 1.256766,0.60981 0,0.44358 -0.20327,0.54221 -1.256766,0.60981 -1.126707,0.0723 -1.256771,0.14616 -1.256771,0.71377 0,0.57708 0.122772,0.64022 1.386585,0.71311 1.071652,0.0618 1.406572,0.18514 1.474612,0.54299 0.0776,0.40797 -0.15025,0.46302 -1.915755,0.46302 H 96.76044 Z m 4.49792,0 c 0,-2.85751 0.011,-2.91042 0.60634,-2.91042 0.47101,0 0.78103,0.33954 1.38906,1.52136 l 0.78272,1.52135 0.0793,-1.52135 c 0.0671,-1.28678 0.15636,-1.52136 0.57881,-1.52136 0.45428,0 0.50693,0.2633 0.58211,2.91096 l 0.0827,2.91095 -0.66146,-0.007 c -0.50349,-0.006 -0.7704,-0.24417 -1.11764,-0.99896 -0.25091,-0.54537 -0.63407,-1.22691 -0.85148,-1.51453 -0.36568,-0.48375 -0.39593,-0.40894 -0.40371,0.99842 -0.007,1.34216 -0.0708,1.52135 -0.53759,1.52135 -0.49709,0 -0.52916,-0.17638 -0.52916,-2.91041 z m 4.49791,2.69721 c 0,-0.24432 0.98971,-3.35866 1.3196,-4.15242 0.12095,-0.29104 0.28651,-0.73753 0.3679,-0.99219 0.0874,-0.27355 0.41139,-0.46302 0.79169,-0.46302 0.5806,0 0.72588,0.25297 1.48159,2.57969 0.46084,1.41883 0.8992,2.72851 0.97414,2.91042 0.087,0.21107 -0.0957,0.33072 -0.50477,0.33072 -0.42702,0 -0.74166,-0.22083 -0.94242,-0.66145 -0.22406,-0.49177 -0.50518,-0.66146 -1.09576,-0.66146 -0.62668,0 -0.82943,0.13964 -0.9604,0.66146 -0.11919,0.47489 -0.34449,0.66145 -0.79879,0.66145 -0.34803,0 -0.63278,-0.0959 -0.63278,-0.2132 z m 2.91042,-2.41099 c 0,-0.51669 -0.33116,-1.07005 -0.55689,-0.93055 -0.39286,0.24281 -0.26595,1.17349 0.16002,1.17349 0.21828,0 0.39687,-0.10932 0.39687,-0.24294 z m 2.38125,-0.28622 v -2.91042 h 0.90983 c 0.88356,0 0.91507,0.0363 1.09125,1.25677 0.25457,1.76352 0.54276,2.21491 0.74627,1.16889 0.0897,-0.46099 0.23206,-1.19535 0.31638,-1.63191 0.1347,-0.69736 0.26322,-0.79375 1.05834,-0.79375 h 0.90501 v 2.92882 c 0,2.85558 -0.0144,2.9267 -0.5746,2.84427 -0.45927,-0.0676 -0.59138,-0.29189 -0.6582,-1.11758 -0.11614,-1.43511 -0.26002,-1.44657 -0.47132,-0.0375 -0.15523,1.03514 -0.2671,1.20284 -0.80237,1.20284 -0.52119,0 -0.65146,-0.17441 -0.80381,-1.07616 -0.23055,-1.3646 -0.56582,-1.0425 -0.6382,0.61314 -0.0122,0.27989 -0.22954,0.46302 -0.54941,0.46302 -0.4971,0 -0.52917,-0.17638 -0.52917,-2.91041 z m 5.80527,2.24896 c -0.009,-0.36381 -0.0156,-1.37584 -0.0156,-2.24896 0,-2.94237 -0.006,-2.91042 0.56029,-2.91042 0.4971,0 0.52917,0.17639 0.52917,2.91042 0,2.73403 -0.0321,2.91041 -0.52917,2.91041 -0.3839,0 -0.53344,-0.18157 -0.54473,-0.66145 z m 1.86765,-2.24896 v -2.91042 h 1.85208 c 1.6757,0 1.85208,0.0504 1.85208,0.52917 0,0.45861 -0.17638,0.52916 -1.32291,0.52916 -1.14653,0 -1.32292,0.0706 -1.32292,0.52917 0,0.44973 0.17639,0.52917 1.17501,0.52917 1.24905,0 1.572,0.22222 1.31108,0.90216 -0.11368,0.29626 -0.50536,0.42075 -1.32377,0.42075 -1.0568,0 -1.16232,0.0588 -1.16232,0.64764 0,0.59456 0.11363,0.65418 1.38659,0.7276 1.07164,0.0618 1.40657,0.18514 1.4746,0.54299 0.0776,0.40797 -0.15025,0.46302 -1.91575,0.46302 h -2.00377 z m 4.49791,0 c 0,-2.85751 0.011,-2.91042 0.60635,-2.91042 0.47101,0 0.78103,0.33954 1.38906,1.52136 l 0.78272,1.52135 0.0793,-1.52135 c 0.0681,-1.30487 0.15277,-1.52136 0.59531,-1.52136 0.56229,0 0.56532,0.0161 0.57297,3.04271 0.007,2.71507 -0.006,2.77812 -0.56092,2.77812 -0.33486,0 -0.77942,-0.48817 -1.32517,-1.4552 -0.4517,-0.80037 -0.88876,-1.45521 -0.97124,-1.45521 -0.0825,0 -0.12838,0.32742 -0.102,0.7276 0.11446,1.7359 0.004,2.18281 -0.53726,2.18281 -0.4971,0 -0.52917,-0.17638 -0.52917,-2.91041 z m 6.08542,0.54674 v -2.36368 l -0.72534,-0.0837 c -0.42011,-0.0485 -0.76033,-0.26836 -0.80848,-0.52249 -0.0682,-0.35995 0.19285,-0.45502 1.45294,-0.52917 0.84485,-0.0497 1.81094,-0.0514 2.14687,-0.004 0.8667,0.12286 0.64591,0.94835 -0.28231,1.05548 l -0.72535,0.0837 v 2.36368 c 0,2.18729 -0.0395,2.36367 -0.52916,2.36367 -0.48968,0 -0.52917,-0.17638 -0.52917,-2.36367 z m -44.979167,-9.37826 v -3.07473 h 1.455209 c 1.10243,0 1.583491,0.12828 1.984375,0.52916 0.559832,0.55984 0.711192,1.70836 0.261745,1.98613 -0.169272,0.10462 -0.120718,0.37473 0.132292,0.73595 0.492791,0.70355 0.511669,1.52159 0.04969,2.15338 -0.255884,0.34994 -0.825142,0.51447 -2.116666,0.61176 l -1.766649,0.13307 z m 2.328987,1.78196 c 0.976789,-0.26163 0.676074,-1.26294 -0.410758,-1.36773 -0.754011,-0.0727 -0.859895,-0.005 -0.859895,0.55122 0,0.96611 0.209494,1.10073 1.270653,0.81651 z m 0.456301,-2.75162 c 0.263301,-0.42602 -0.424619,-1.08162 -1.042344,-0.99336 -0.339907,0.0486 -0.584834,0.30786 -0.636867,0.67423 -0.07162,0.50425 0.03729,0.59531 0.71199,0.59531 0.438095,0 0.873345,-0.12428 0.967221,-0.27618 z m 3.285421,3.80787 c -1.63081,-0.44019 -1.717071,-5.13026 -0.10573,-5.74859 0.550555,-0.21127 1.806988,-0.21127 2.357542,0 0.687757,0.26392 1.202479,1.55572 1.202479,3.01786 0,2.15 -1.426855,3.27797 -3.454291,2.73073 z m 1.753625,-1.43616 c 0.963831,-1.06502 0.483309,-3.41845 -0.697978,-3.41845 -1.20131,0 -1.756448,2.45949 -0.776356,3.43958 0.664803,0.66481 0.856051,0.66207 1.474334,-0.0211 z m 2.343669,1.25907 c -0.07378,-0.19226 -0.09981,-1.53171 -0.05784,-2.97656 l 0.0763,-2.627 1.387322,-0.0799 c 1.178481,-0.0679 1.484518,0.0173 2.032986,0.56575 1.290507,1.29051 1.061245,4.4033 -0.3776,5.12686 -0.888232,0.44666 -2.888548,0.44069 -3.061164,-0.009 z m 2.743664,-1.29085 c 0.174625,-0.17463 0.3175,-0.82673 0.3175,-1.44911 0,-0.90968 -0.12744,-1.21511 -0.649823,-1.55739 -0.357403,-0.23418 -0.774121,-0.34896 -0.926042,-0.25507 -0.15192,0.0939 -0.276218,0.93759 -0.276218,1.87489 0,1.60188 0.03653,1.70418 0.608541,1.70418 0.334698,0 0.751417,-0.14288 0.926042,-0.3175 z m 2.356809,1.47486 c -0.102974,-0.10297 -0.187226,-1.48228 -0.187226,-3.06513 v -2.87791 l 1.915427,0.0777 c 1.57698,0.064 1.93103,0.15955 2.00377,0.54076 0.0747,0.39174 -0.1183,0.46302 -1.25396,0.46302 -1.25542,0 -1.34232,0.0428 -1.34232,0.66146 0,0.60756 0.097,0.66146 1.19063,0.66146 1.01423,0 1.19062,0.0784 1.19062,0.52916 0,0.45078 -0.17639,0.52917 -1.19062,0.52917 -1.09362,0 -1.19063,0.0539 -1.19063,0.66146 0,0.72927 -0.0387,0.70881 1.45521,0.77021 0.86038,0.0354 1.05833,0.14061 1.05833,0.56269 0,0.45511 -0.21363,0.52868 -1.731,0.59617 -0.95205,0.0423 -1.815257,-0.007 -1.918231,-0.11025 z m 5.084091,-0.60784 c -0.65429,-0.65429 -0.7734,-0.98295 -0.7734,-2.13406 0,-2.18271 0.75089,-3.15516 2.4474,-3.16955 0.64794,-0.005 1.17578,0.17519 1.52135,0.52075 1.08001,1.08002 0.38891,1.76331 -0.91761,0.90724 -1.21295,-0.79476 -2.21213,0.35423 -1.87426,2.15526 0.1865,0.99411 0.93913,1.55527 1.74353,1.29996 0.67369,-0.21382 0.66775,-0.84006 -0.01,-1.05516 -0.29564,-0.0938 -0.52917,-0.40033 -0.52917,-0.6945 0,-0.45585 0.151,-0.51563 1.12448,-0.4452 1.11367,0.0806 1.12525,0.0919 1.20437,1.17583 0.0674,0.92318 -0.0314,1.18197 -0.63099,1.65364 -1.04475,0.8218 -2.35458,0.73692 -3.30571,-0.21421 z m 4.2553,0.44267 c 8.9e-4,-0.18191 0.38978,-1.52136 0.8642,-2.97657 0.77912,-2.38981 0.92486,-2.64583 1.50616,-2.64583 0.58267,0 0.73407,0.26964 1.59992,2.84959 0.52599,1.56728 0.89921,2.90673 0.82938,2.97657 -0.35937,0.35937 -1.13805,0.0537 -1.36169,-0.53449 -0.2026,-0.53289 -0.43277,-0.66146 -1.18408,-0.66146 -0.73863,0 -0.93259,0.10417 -0.93259,0.50086 0,0.27547 -0.18833,0.57313 -0.41851,0.66146 -0.63717,0.2445 -0.90457,0.19411 -0.90279,-0.17013 z m 2.72088,-2.84428 c -0.11522,-0.44061 -0.60583,-0.77953 -0.60583,-0.41851 0,0.0609 -0.0723,0.29898 -0.1606,0.52917 -0.11367,0.29623 -0.005,0.41851 0.37211,0.41851 0.40244,0 0.49886,-0.1294 0.39432,-0.52917 z m 4.33306,2.99862 c -0.097,-0.097 -0.17639,-1.46624 -0.17639,-3.04271 v -2.86632 h 1.30128 c 1.68007,0 2.07416,0.16681 2.54496,1.07725 0.84855,1.6409 0.26217,4.50284 -0.99137,4.83863 -0.81081,0.2172 -2.45865,0.21298 -2.67848,-0.007 z m 2.46944,-1.41112 c 0.71006,-0.71005 0.70159,-2.20882 -0.0165,-2.92695 -0.8776,-0.87759 -1.16674,-0.51749 -1.25183,1.55906 -0.0855,2.08605 0.22036,2.4159 1.26836,1.36789 z m 2.38125,-1.44361 v -3.0543 h 1.85209 c 1.6583,0 1.85208,0.0539 1.85208,0.51467 0,0.42628 -0.21583,0.52852 -1.25677,0.59531 -1.0535,0.0676 -1.25677,0.16623 -1.25677,0.60981 0,0.44459 0.20349,0.54216 1.27325,0.61048 1.02935,0.0657 1.25697,0.16711 1.18824,0.52917 -0.0631,0.33226 -0.41291,0.46883 -1.3555,0.52915 -1.2069,0.0772 -1.26639,0.11697 -1.18825,0.79375 0.0684,0.59241 0.216,0.71523 0.87601,0.72898 1.70239,0.0354 1.9386,0.10854 1.87041,0.57878 -0.0555,0.38296 -0.39461,0.47646 -1.96096,0.54076 l -1.89383,0.0777 z"
       id="path1" /></g></svg>
