<?xml version="1.0" encoding="UTF-8" standalone="no"?>
<!-- Created with Inkscape (http://www.inkscape.org/) -->

<svg
   width="210mm"
   height="297mm"
   viewBox="0 0 210 297"
   version="1.1"
   id="svg1"
   xml:space="preserve"
   inkscape:version="1.3.2 (091e20e, 2023-11-25, custom)"
   sodipodi:docname="imagen 3 extintor.svg"
   xmlns:inkscape="http://www.inkscape.org/namespaces/inkscape"
   xmlns:sodipodi="http://sodipodi.sourceforge.net/DTD/sodipodi-0.dtd"
   xmlns="http://www.w3.org/2000/svg"
   xmlns:svg="http://www.w3.org/2000/svg"><sodipodi:namedview
     id="namedview1"
     pagecolor="#ffffff"
     bordercolor="#000000"
     borderopacity="0.25"
     inkscape:showpageshadow="2"
     inkscape:pageopacity="0.0"
     inkscape:pagecheckerboard="0"
     inkscape:deskcolor="#d1d1d1"
     inkscape:document-units="mm"
     inkscape:zoom="32"
     inkscape:cx="390.59375"
     inkscape:cy="560.45312"
     inkscape:window-width="1920"
     inkscape:window-height="1017"
     inkscape:window-x="-8"
     inkscape:window-y="-8"
     inkscape:window-maximized="1"
     inkscape:current-layer="layer1" /><defs
     id="defs1" /><g
     inkscape:label="Capa 1"
     inkscape:groupmode="layer"
     id="layer1"
     style="display:inline"><path
       style="fill:#ff0000;stroke-width:0.1;stroke:#000000;stroke-opacity:1"
       d="m 103.05489,145.90117 h 3.6851 v 5.17992 h -3.69309 z"
       id="path1" /><path
       style="fill:#ffffff;stroke-width:0.1"
       d="m 104.70009,146.83234 v 0.48046 l -0.21399,0.003 c -0.0738,-0.003 -0.12286,0.021 -0.11131,0.11109 l 0.009,2.75175 c 0.0187,0.0921 0.0578,0.14874 0.10762,0.18641 h 0.81372 c 0.0714,-0.01 0.12008,-0.0649 0.15255,-0.15255 l 0.006,-2.79146 c 0.003,-0.0635 -0.031,-0.0897 -0.0823,-0.0987 l -0.37569,-0.009 -0.009,-0.47812 z"
       id="path3"
       sodipodi:nodetypes="ccccccccccccc" /><path
       style="fill:#ffffff;stroke-width:0.1"
       d="m 105.00059,146.98153 c 0.31502,-0.0162 0.98703,-0.0983 1.02606,-0.003 0.22432,0.20428 0.25351,0.53274 0.25726,0.60511 0.005,0.35908 -0.18008,0.46377 -0.30695,0.6402 l -0.52326,0.58465 -0.003,-0.21925 0.41803,-0.44141 c 0.0897,-0.14708 0.18083,-0.0963 0.29817,-0.48526 0.059,-0.21667 -0.049,-0.39393 -0.19878,-0.56419 -0.0211,-0.12907 -0.64797,-0.007 -0.96176,-0.006 z"
       id="path4"
       sodipodi:nodetypes="ccccccccccc" /><path
       style="fill:#ffffff;stroke-width:0.1"
       d="m 103.42207,146.78733 -0.006,0.4861 c 0.40267,-0.006 0.82957,-0.0691 1.27745,-0.18087 v -0.1074 c -0.63977,-0.1641 -0.95528,-0.18082 -1.27145,-0.19783 z"
       id="path2"
       sodipodi:nodetypes="ccccc" /><path
       style="fill:#ff0000;stroke-width:0.1"
       d="m 105.2263,147.92489 0.043,0.002 c 0.0758,-0.01 0.0831,-0.0755 0.10452,-0.12445 -0.0457,-0.0261 -0.1077,-0.0587 -0.12641,-0.13105 -0.0239,0.0478 -0.006,0.0729 -0.11961,0.1314 0.0177,0.0578 0.0121,0.11868 0.0985,0.12204 z"
       id="path5"
       sodipodi:nodetypes="ccccccc" /></g></svg>
