<?xml version="1.0" encoding="UTF-8" standalone="no"?>
<!-- Created with Inkscape (http://www.inkscape.org/) -->

<svg
   width="20.259844mm"
   height="21.991804mm"
   viewBox="0 0 20.259842 21.991804"
   version="1.1"
   id="svg1"
   xml:space="preserve"
   inkscape:version="1.3.2 (091e20e, 2023-11-25, custom)"
   sodipodi:docname="extinm.svg"
   xmlns:inkscape="http://www.inkscape.org/namespaces/inkscape"
   xmlns:sodipodi="http://sodipodi.sourceforge.net/DTD/sodipodi-0.dtd"
   xmlns="http://www.w3.org/2000/svg"
   xmlns:svg="http://www.w3.org/2000/svg"><sodipodi:namedview
     id="namedview1"
     pagecolor="#ffffff"
     bordercolor="#000000"
     borderopacity="0.25"
     inkscape:showpageshadow="2"
     inkscape:pageopacity="0.0"
     inkscape:pagecheckerboard="0"
     inkscape:deskcolor="#d1d1d1"
     inkscape:document-units="mm"
     inkscape:zoom="2.9897026"
     inkscape:cx="0.83620358"
     inkscape:cy="92.818597"
     inkscape:window-width="1920"
     inkscape:window-height="1017"
     inkscape:window-x="-8"
     inkscape:window-y="-8"
     inkscape:window-maximized="1"
     inkscape:current-layer="layer1" /><defs
     id="defs1" /><g
     inkscape:label="Capa 1"
     inkscape:groupmode="layer"
     id="layer1"
     transform="translate(-94.870083,-137.57047)"><path
       style="fill:#ff0000"
       d="m 94.923313,148.43385 c 0.01024,-6.15469 0.11683,-10.94082 0.237173,-10.64948 0.332611,0.80524 0.348734,21.82813 0.01674,21.82813 -0.18295,0 -0.266398,-3.67382 -0.253913,-11.17865 z m 0.368706,1.42392 -0.390488,-12.21435 2.715169,-0.034 c 0.983129,-0.0123 4.31979,0.003 4.31979,0.003 0.039,-0.0788 -2.868856,3.15557 -3.278305,3.69274 -0.409449,0.53717 -0.885699,1.40184 -1.058334,1.9215 -0.370246,1.11449 -0.421988,7.12192 -0.07146,8.2968 0.133331,0.44689 0.476757,1.58644 0.763168,2.53233 0.28641,0.94588 0.568158,2.33981 0.881251,3.00222 0.389762,0.82462 1.21696,1.03164 1.88007,1.03396 0.17916,-0.0383 0.0837,0.80239 0.13938,1.05705 0.0914,0.41819 -0.16993,0.46302 -2.699524,0.46302 l -3.457851,-0.0939 z m 14.946341,9.15941 c -0.007,-0.32742 -0.01,-3.74308 -0.007,-7.59036 l 0.005,-6.99505 -1.44804,-1.51812 c -0.79642,-0.83497 -1.44804,-1.70555 -1.44804,-1.93464 0,-0.68527 1.49695,-0.50288 2.73046,0.33269 1.40978,0.95499 1.969,1.15436 2.1981,0.78367 0.17017,-0.27534 -0.71695,-1.20678 -1.90859,-2.00394 -0.35812,-0.23956 -1.62642,-0.31525 -2.89702,-0.55144 -0.60499,-0.11247 4.00789,-0.49412 3.36385,-0.62847 -0.11948,-0.0249 -6.96788,0.0183 -8.23334,-0.19389 -2.20262,-0.36934 0.82414,-1.06794 1.77169,-1.05404 1.597,0.0234 10.80513,0.0318 10.7386,-0.12344 -0.0718,-0.16766 -0.12321,5.1556 -0.11172,11.15833 l 0.0209,10.91407 h -2.38125 c -2.28944,0 -2.38172,-0.023 -2.39344,-0.59532 z m -9.74085,-2.92366 c -1.068797,-2.61918 -1.235137,-3.03702 -1.600976,-4.02165 -0.162205,-0.43656 -0.323049,-2.40109 -0.357431,-4.36562 -0.06995,-3.99694 0.185305,-4.93852 1.679667,-6.19595 0.673,-0.56629 1.08019,-0.68322 2.37916,-0.68322 1.0651,0 1.5672,0.10443 1.5672,0.32594 0,0.17927 -0.65484,0.93054 -1.45521,1.6695 l -1.4552,1.34355 -0.004,6.06957 c -0.002,3.33826 -0.0949,6.21243 -0.20587,6.38704 -0.13249,0.20843 -0.32047,0.0267 -0.54729,-0.52916 z m -3.810154,-15.55765 c 0.0749,-0.52736 5.076684,-3.24828 6.424384,-3.31857 1.61312,-0.0841 1.47399,0.97179 1.04408,1.77509 -0.2151,0.40194 -0.55977,0.51177 -1.6059,0.51177 -1.23,0 -5.940634,1.58142 -5.862564,1.03171 z m 8.486504,-2.27078 c 0.19099,-0.0764 0.4192,-0.067 0.50712,0.0209 0.0879,0.0879 -0.0684,0.15045 -0.34727,0.13896 -0.30822,-0.0127 -0.37092,-0.0754 -0.15985,-0.15985 z"
       id="path1"
       sodipodi:nodetypes="ssssccsssssssccscccccssssssssssscscccssssssccsccssssssssss" /><path
       style="fill:none;stroke:#000000;stroke-width:0.0649999;stroke-miterlimit:3.6"
       d="m 95.00283,159.56227 h 20.04484 V 137.61472 H 94.958581 Z"
       id="path2" /><path
       style="fill:#000000;fill-opacity:1;stroke:#000000;stroke-width:0.0649999;stroke-miterlimit:3.6;stroke-opacity:1"
       d="m 106.25691,145.54005 h 1.40799 v 0.39111 h 0.40676 v 0.40675 h 0.40675 v 0.31289 h 0.32854 v 3.19146 h -0.34418 v 0.32854 h -0.35982 v 0.50062 h -0.37547 v 0.31289 h -1.45493"
       id="path3" /><path
       style="fill:#000000;fill-opacity:1;stroke:#000000;stroke-width:0.0649999;stroke-miterlimit:3.6"
       d="m 106.35629,145.55744 h -1.40799 v 0.39111 h -0.40676 v 0.40675 h -0.40675 v 0.31289 h -0.32854 v 3.19146 h 0.34418 v 0.32854 h 0.35982 v 0.50062 h 0.37547 v 0.31289 h 1.45493"
       id="path3-0" /><text
       xml:space="preserve"
       style="font-size:5.51829px;line-height:4.69273px;font-family:Arial;-inkscape-font-specification:Arial;fill:#ffffff;fill-opacity:1;stroke:#000000;stroke-width:0.211824;stroke-miterlimit:3.6;stroke-opacity:1"
       x="89.844574"
       y="173.68082"
       id="text4"
       transform="scale(1.1577241,0.86376365)"><tspan
         sodipodi:role="line"
         id="tspan4"
         style="fill:#ffffff;fill-opacity:1;stroke-width:0.211824"
         x="89.844574"
         y="173.68082">K</tspan></text><path
       style="fill:#ed0000;fill-opacity:1;stroke:none;stroke-width:0.0649999;stroke-miterlimit:3.6;stroke-opacity:1"
       d="m 103.74203,153.94264 h 4.57978 v 0.46461 h -4.57978 z"
       id="path4" /><path
       style="fill:#ff0000;fill-opacity:1;stroke:#de0000;stroke-width:0.365;stroke-miterlimit:3.6;stroke-dasharray:none;stroke-opacity:1"
       d="M 100.18687,158.91603 H 111.3257"
       id="path5" /><path
       style="fill:#ed0000;fill-opacity:1;stroke:none;stroke-width:0.0649999;stroke-miterlimit:3.6;stroke-opacity:1"
       d="m 103.48458,155.49525 5.39329,0.0469 v 1.07474 l -5.39329,-0.0156 z"
       id="path4-1"
       sodipodi:nodetypes="ccccc" /></g></svg>
