<?xml version="1.0" encoding="UTF-8" standalone="no"?>
<!-- Created with Inkscape (http://www.inkscape.org/) -->

<svg
   width="210mm"
   height="297mm"
   viewBox="0 0 210 297"
   version="1.1"
   id="svg1"
   xml:space="preserve"
   inkscape:version="1.3.2 (091e20e, 2023-11-25, custom)"
   sodipodi:docname="imagen 5 mejorable.svg"
   xmlns:inkscape="http://www.inkscape.org/namespaces/inkscape"
   xmlns:sodipodi="http://sodipodi.sourceforge.net/DTD/sodipodi-0.dtd"
   xmlns="http://www.w3.org/2000/svg"
   xmlns:svg="http://www.w3.org/2000/svg"><sodipodi:namedview
     id="namedview1"
     pagecolor="#ffffff"
     bordercolor="#000000"
     borderopacity="0.25"
     inkscape:showpageshadow="2"
     inkscape:pageopacity="0.0"
     inkscape:pagecheckerboard="0"
     inkscape:deskcolor="#d1d1d1"
     inkscape:document-units="mm"
     inkscape:zoom="1.0343421"
     inkscape:cx="346.59714"
     inkscape:cy="544.79076"
     inkscape:window-width="1920"
     inkscape:window-height="1017"
     inkscape:window-x="-8"
     inkscape:window-y="-8"
     inkscape:window-maximized="1"
     inkscape:current-layer="layer1" /><defs
     id="defs1" /><g
     inkscape:label="Capa 1"
     inkscape:groupmode="layer"
     id="layer1"><path
       style="fill:#ffff00;stroke:#000000;stroke-width:0.0499999;stroke-opacity:1"
       d="M 46.427458,100.40098 H 154.5024 v 65.61236 H 46.427458 Z"
       id="path2" /><path
       style="fill:#000000;stroke:#000000;stroke-opacity:1"
       d="m 99.51521,167.0482 c -0.25513,-0.23766 -0.08892,-0.63431 0.265789,-0.63431 0.164623,0 0.291351,0.1363 0.291351,0.31336 0,0.0685 -0.0669,0.0903 -0.276629,0.0903 -0.213775,0 -0.268947,0.0186 -0.24283,0.082 0.05293,0.1285 0.217642,0.16 0.332095,0.0635 0.190024,-0.16019 0.272284,-0.0599 0.09008,0.10982 -0.132488,0.12342 -0.311148,0.11382 -0.459859,-0.0247 z m 0.392555,-0.43554 c -0.04257,-0.10335 -0.277367,-0.0904 -0.315485,0.0175 -0.01665,0.0471 0.03998,0.0721 0.163445,0.0721 0.145362,0 0.180422,-0.0207 0.15204,-0.0896 z m 0.427675,0.51268 c -0.0469,-0.0176 -0.0774,-0.13878 -0.0774,-0.3078 0,-0.16893 -0.0305,-0.29023 -0.0774,-0.30796 -0.0538,-0.0203 -0.0571,-0.0438 -0.011,-0.0769 0.0365,-0.0262 0.0896,-0.0995 0.11791,-0.16297 l 0.0515,-0.11533 0.0285,0.11533 c 0.0157,0.0634 0.0601,0.13677 0.0987,0.16297 0.0514,0.0349 0.0495,0.0555 -0.007,0.0769 -0.0917,0.0347 -0.10606,0.48095 -0.0155,0.48095 0.034,0 0.0619,0.0389 0.0619,0.0865 0,0.0889 -0.0355,0.0989 -0.17024,0.0483 z m 0.34047,-0.0225 c -0.21457,-0.11952 -0.0486,-0.4006 0.23657,-0.4006 0.0924,0 0.15033,-0.0334 0.15033,-0.0865 0,-0.0964 -0.21872,-0.11903 -0.27856,-0.0288 -0.0562,0.0847 -0.15476,0.0702 -0.15476,-0.0227 0,-0.0962 0.13306,-0.15033 0.36986,-0.15033 0.20229,0 0.24918,0.0816 0.24918,0.43361 0,0.20132 -0.0215,0.25092 -0.10833,0.24981 -0.0596,-7.7e-4 -0.16405,0.0137 -0.23215,0.0322 -0.0681,0.0185 -0.17255,0.006 -0.23214,-0.0267 z m 0.28899,-0.0896 c 0.13848,-0.0495 0.12187,-0.19566 -0.0222,-0.19566 -0.13604,0 -0.21557,0.0868 -0.15841,0.17299 0.0449,0.0676 0.0522,0.0686 0.18065,0.0227 z m 0.51964,0.0242 c -0.0863,-0.0804 -0.10895,-0.13436 -0.0625,-0.1488 0.0401,-0.0125 0.11698,0.0184 0.17079,0.0685 0.11731,0.10928 0.16433,0.11321 0.26232,0.0219 0.18695,-0.17415 -0.0202,-0.47295 -0.23942,-0.3454 -0.16222,0.0944 -0.18165,0.0878 -0.18068,-0.0611 0.002,-0.32386 0.0604,-0.38923 0.34684,-0.38923 0.14925,0 0.27135,0.0259 0.27135,0.0577 0,0.0317 -0.0975,0.0577 -0.21666,0.0577 -0.27293,0 -0.29521,0.14394 -0.0299,0.19336 0.44414,0.0828 0.32279,0.66297 -0.14031,0.67082 -0.0255,4.3e-4 -0.10736,-0.056 -0.18184,-0.12535 z m 0.82874,0.0569 c -0.0901,-0.084 -0.0978,-0.21913 -0.0124,-0.21913 0.0341,0 0.0619,0.0232 0.0619,0.0515 0,0.0976 0.18236,0.11638 0.27678,0.0284 0.14501,-0.13507 0.11324,-0.19584 -0.0832,-0.15923 -0.13979,0.026 -0.19944,0.004 -0.27857,-0.10077 -0.13465,-0.17908 -0.12687,-0.31453 0.0263,-0.45719 0.14025,-0.13065 0.34274,-0.10999 0.47659,0.0486 0.12682,0.15029 0.0977,0.62733 -0.0464,0.76163 -0.13974,0.13017 -0.31063,0.14889 -0.42095,0.0461 z m 0.35687,-0.50366 c 0.0827,-0.1439 0.0817,-0.15214 -0.0306,-0.25671 -0.0521,-0.0485 -0.13563,-0.0735 -0.18571,-0.0556 -0.11085,0.0396 -0.12169,0.34508 -0.0137,0.38568 0.1344,0.0505 0.16428,0.041 0.22997,-0.0734 z m 0.43251,0.46687 c -0.0855,-0.0645 -0.12199,-0.13391 -0.0932,-0.17734 0.0351,-0.053 0.0777,-0.041 0.16505,0.0464 0.12779,0.12777 0.27006,0.11069 0.33208,-0.0399 0.0416,-0.10091 -0.13157,-0.26147 -0.22436,-0.20805 -0.029,0.0167 -0.0528,0.004 -0.0528,-0.0286 0,-0.0325 0.0557,-0.0868 0.12381,-0.12077 0.0681,-0.0339 0.12381,-0.0969 0.12381,-0.14002 0,-0.11778 -0.16989,-0.1548 -0.27236,-0.0594 -0.1339,0.12473 -0.24158,0.10902 -0.16511,-0.0241 0.0775,-0.13483 0.24323,-0.17818 0.43225,-0.11305 0.12459,0.0429 0.14004,0.078 0.1101,0.24983 -0.0191,0.10994 -0.009,0.21487 0.023,0.23318 0.1081,0.0622 0.0589,0.30755 -0.0798,0.39804 -0.17767,0.11593 -0.25109,0.11311 -0.42255,-0.0162 z m 1.20958,0.0263 c -0.13852,-0.0943 -0.15948,-0.43853 -0.0352,-0.57802 0.11756,-0.13194 0.41888,-0.11781 0.50004,0.0234 0.0529,0.0921 0.0471,0.11533 -0.0288,0.11533 -0.0523,0 -0.095,-0.0277 -0.095,-0.0617 0,-0.0339 -0.0627,-0.0534 -0.13929,-0.0433 -0.11083,0.0147 -0.14311,0.0611 -0.15802,0.22733 -0.0224,0.25012 0.12502,0.33999 0.30664,0.18688 0.15507,-0.13072 0.2255,-0.0518 0.0839,0.094 -0.13162,0.13548 -0.27114,0.14702 -0.43422,0.0359 z m 0.72622,-0.01 c -0.27751,-0.18106 -0.13029,-0.65987 0.20289,-0.65987 0.20595,0 0.34047,0.14843 0.34047,0.37567 0,0.1879 -0.1694,0.37397 -0.34047,0.37397 -0.0359,0 -0.12722,-0.0404 -0.20289,-0.0898 z m 0.39716,-0.23863 c 0.0517,-0.19177 -0.1185,-0.36032 -0.27281,-0.27022 -0.144,0.0841 -0.16707,0.27509 -0.0468,0.38715 0.12613,0.11749 0.27067,0.0646 0.31958,-0.11693 z m 0.29682,0.25265 c -0.0188,-0.0457 -0.0256,-0.20952 -0.015,-0.36406 l 0.0192,-0.281 h 0.49524 0.49523 l 0.0186,0.33157 c 0.0108,0.19311 -0.007,0.33157 -0.043,0.33157 -0.0339,0 -0.0701,-0.12325 -0.0805,-0.2739 -0.0158,-0.22961 -0.0389,-0.27391 -0.14268,-0.27391 -0.10378,0 -0.12686,0.0443 -0.14267,0.27391 -0.02,0.29084 -0.13263,0.38318 -0.14063,0.11533 -0.0106,-0.35604 -0.0607,-0.45128 -0.20926,-0.39818 -0.0664,0.0237 -0.0955,0.1128 -0.0955,0.29205 0,0.25754 -0.0942,0.40372 -0.1589,0.24662 z M 94.847261,166.8361 c -0.110426,-0.30189 -0.123698,-0.42221 -0.04657,-0.42221 0.02866,0 0.08943,0.11028 0.135054,0.24507 l 0.08295,0.24508 0.05945,-0.24508 c 0.07591,-0.31292 0.200583,-0.31355 0.300943,-0.002 l 0.07834,0.24356 0.06864,-0.22915 c 0.05498,-0.18356 0.100773,-0.23271 0.230156,-0.24707 0.141361,-0.0157 0.166675,0.008 0.202869,0.18741 0.05257,0.26101 0.126101,0.26246 0.178252,0.004 0.05323,-0.26433 0.202626,-0.26395 0.255913,6.4e-4 0.05792,0.28761 0.132579,0.29793 0.182052,0.0251 0.03798,-0.20942 0.05929,-0.23232 0.201466,-0.21649 0.126008,0.014 0.173981,0.0656 0.231256,0.24837 l 0.07227,0.23066 0.08203,-0.24508 c 0.04511,-0.13479 0.115444,-0.24507 0.156288,-0.24507 0.04084,0 0.101017,0.11028 0.133716,0.24507 l 0.05945,0.24508 0.08295,-0.24508 c 0.04562,-0.13479 0.106396,-0.24507 0.135054,-0.24507 0.07225,0 0.06398,0.10125 -0.03296,0.40365 -0.107517,0.3354 -0.252547,0.36821 -0.331873,0.0751 l -0.05933,-0.21923 -0.05983,0.20174 c -0.09329,0.31459 -0.240748,0.29064 -0.335716,-0.0545 -0.04409,-0.16026 -0.100184,-0.29138 -0.124648,-0.29138 -0.02446,0 -0.08018,0.12975 -0.123809,0.28833 -0.09983,0.36284 -0.266494,0.39866 -0.335355,0.0721 l -0.04559,-0.21624 -0.07511,0.20182 c -0.118812,0.31927 -0.246473,0.28722 -0.342594,-0.086 -0.09271,-0.36 -0.132364,-0.35313 -0.246658,0.0428 -0.09515,0.32957 -0.211308,0.35067 -0.317372,0.0577 l -0.07828,-0.21624 -0.05648,0.21624 c -0.07642,0.29259 -0.197833,0.27208 -0.316933,-0.0535 z m 2.996535,0.2121 c 0,-0.0317 0.04179,-0.0577 0.09286,-0.0577 0.05107,0 0.09286,0.0259 0.09286,0.0577 0,0.0317 -0.04179,0.0577 -0.09286,0.0577 -0.05107,0 -0.09286,-0.0259 -0.09286,-0.0577 z m 0.371425,-0.27973 v -0.3374 l 0.448806,-0.003 c 0.246843,-0.001 0.483626,0.0238 0.526185,0.0561 0.114136,0.0868 0.102766,0.62139 -0.01322,0.62139 -0.06705,0 -0.08913,-0.068 -0.08496,-0.26174 0.0063,-0.29205 -0.02276,-0.34487 -0.16225,-0.29501 -0.06665,0.0238 -0.09553,0.11313 -0.09553,0.29545 0,0.19383 -0.02398,0.2613 -0.09286,0.2613 -0.07034,0 -0.09286,-0.0709 -0.09286,-0.29255 0,-0.24748 -0.01669,-0.2896 -0.108333,-0.27339 -0.08163,0.0144 -0.112983,0.0866 -0.1272,0.29255 -0.01324,0.19186 -0.04555,0.27339 -0.108332,0.27339 -0.06782,0 -0.08947,-0.0816 -0.08947,-0.33739 z m 5.633279,0.27973 c 0,-0.0317 0.0418,-0.0577 0.0929,-0.0577 0.0511,0 0.0929,0.0259 0.0929,0.0577 0,0.0317 -0.0418,0.0577 -0.0929,0.0577 -0.0511,0 -0.0929,-0.0259 -0.0929,-0.0577 z m -56.765852,-1.42721 3.08e-4,-0.21624 0.152227,0.17299 c 0.193012,0.21935 0.193309,0.2595 0.0019,0.2595 -0.137619,0 -0.154726,-0.024 -0.154453,-0.21625 z m 2.800859,-3.28742 -2.801166,-3.49399 v -3.51982 c 0,-2.98855 0.01284,-3.50707 0.0851,-3.43537 0.0468,0.0464 1.277725,1.56354 2.735384,3.37133 2.190155,2.71624 2.654777,3.32445 2.676144,3.50315 0.02145,0.17942 0.04982,0.21624 0.166633,0.21624 0.113891,0 0.662391,0.64798 2.872043,3.39294 1.502197,1.86611 2.731268,3.41009 2.731268,3.43106 0,0.021 -1.274453,0.0359 -2.832118,0.0333 l -2.832118,-0.005 z m 11.07286,0.11073 c -1.502197,-1.86611 -2.731268,-3.41009 -2.731268,-3.43106 0,-0.021 1.266971,-0.0381 2.81549,-0.0381 h 2.815489 l 2.702317,3.35898 c 1.486274,1.84744 2.729835,3.39142 2.763469,3.43106 0.04874,0.0574 -0.517039,0.0721 -2.786538,0.0721 h -2.847692 z m 10.978673,0.0129 c -1.497068,-1.85904 -2.731323,-3.40328 -2.742787,-3.43165 -0.01212,-0.03 1.165208,-0.0453 2.813511,-0.0366 l 2.834355,0.015 2.71144,3.36509 c 1.491292,1.85079 2.71144,3.38828 2.71144,3.41664 0,0.0296 -1.196704,0.0516 -2.803008,0.0516 h -2.803008 z m 10.958888,-0.004 c -1.498082,-1.86031 -2.733165,-3.40415 -2.744629,-3.43074 -0.01146,-0.0266 1.256024,-0.0416 2.816642,-0.0333 l 2.837485,0.015 2.679148,3.31574 c 1.473531,1.82365 2.707179,3.36114 2.741439,3.41664 0.05894,0.0955 -0.09006,0.10087 -2.772004,0.10001 l -2.834295,-9.1e-4 z m 13.608043,3.25446 c -0.256466,-0.26552 -5.34383,-6.62048 -5.34383,-6.67533 0,-0.0368 0.995323,-0.0571 2.801577,-0.0571 h 2.801578 l 2.723373,3.38125 c 1.497851,1.85968 2.732661,3.40366 2.744011,3.43106 0.0114,0.0275 -1.23699,0.0498 -2.790377,0.0498 h -2.81101 z m 8.341859,-3.23404 c -1.47839,-1.8448 -2.69945,-3.38661 -2.71347,-3.42626 -0.0201,-0.057 0.56523,-0.0721 2.78975,-0.0721 h 2.81524 l 2.71487,3.37411 c 1.49318,1.85575 2.72415,3.39973 2.7355,3.43106 0.0134,0.037 -0.97368,0.0553 -2.81664,0.0521 l -2.83727,-0.005 z m 10.95967,-0.0292 c -1.5022,-1.86611 -2.73127,-3.41009 -2.73127,-3.43106 0,-0.021 1.26685,-0.0381 2.81522,-0.0381 h 2.81522 l 2.4959,3.09949 c 1.37274,1.70472 2.61389,3.2487 2.75811,3.43106 l 0.26222,0.33158 h -2.84207 -2.84206 z m 13.61144,3.33621 c 0,-0.0312 -1.21177,-1.56085 -2.69283,-3.39921 -1.48106,-1.83837 -2.69283,-3.35708 -2.69283,-3.37492 0,-0.0178 1.27311,-0.0257 2.82913,-0.0174 l 2.82914,0.015 2.55692,3.17157 c 1.40631,1.74437 2.64205,3.28186 2.74609,3.41665 l 0.18917,0.24508 h -2.88239 c -1.84869,0 -2.8824,-0.0204 -2.8824,-0.0567 z m 8.32612,-3.33003 c -1.49808,-1.86112 -2.73307,-3.40445 -2.74442,-3.42961 -0.0114,-0.0252 1.25614,-0.0446 2.81664,-0.0433 l 2.83728,0.002 2.69283,3.34972 c 1.48106,1.84235 2.71511,3.38522 2.74234,3.42861 0.0416,0.0663 -0.40394,0.0786 -2.78569,0.0774 l -2.83519,-0.001 z m 10.94012,-0.0328 -2.74071,-3.41374 1.30059,-0.0156 1.3006,-0.0156 0.0163,-1.88294 0.0163,-1.88294 2.73926,3.40291 2.73926,3.40291 v 1.91224 1.91224 l -1.31546,-0.003 -1.31547,-0.003 z m 6.24672,-2.17817 c -0.10061,-0.0375 -0.137,-0.0879 -0.11643,-0.16115 0.0164,-0.0586 0.005,-0.14744 -0.0247,-0.19741 -0.0333,-0.0554 -0.03,-0.10496 0.008,-0.12702 0.0423,-0.0243 0.0425,-0.0717 6e-4,-0.14451 -0.0714,-0.12427 8.5e-4,-0.19119 0.14918,-0.13818 0.14245,0.0509 0.12098,-0.0516 -0.0291,-0.13892 -0.14692,-0.0855 -0.14908,-0.41647 -0.003,-0.46121 0.0636,-0.0195 0.078,0.0133 0.055,0.12531 -0.0171,0.0834 -0.007,0.15169 0.0222,0.15169 0.0293,0 0.0533,-0.0908 0.0533,-0.20183 0,-0.16627 -0.0228,-0.20183 -0.12936,-0.20183 -0.0711,0 -0.18045,-0.0584 -0.24288,-0.12975 -0.11108,-0.12695 -0.11063,-0.13043 0.021,-0.1617 0.0776,-0.0184 0.17386,0.004 0.2274,0.0536 0.0821,0.0756 0.0953,0.0737 0.11397,-0.0166 0.0116,-0.0562 -0.0371,-0.14011 -0.10833,-0.18656 -0.0895,-0.0584 -0.12945,-0.14689 -0.12945,-0.28691 0,-0.1762 0.0161,-0.19769 0.12381,-0.16584 0.0892,0.0264 0.12381,0.0104 0.12381,-0.0572 0,-0.0516 0.0244,-0.0797 0.0543,-0.0625 0.0703,0.0405 0.0692,1.92952 -0.001,1.97004 -0.0294,0.0169 -0.0254,0.0795 0.009,0.13909 0.0428,0.0746 0.0412,0.12045 -0.005,0.14718 -0.0486,0.028 -0.0486,0.0564 -1.7e-4,0.10153 0.0766,0.0713 0.0909,0.21447 0.0209,0.20896 -0.0255,-0.002 -0.11228,-0.0282 -0.19277,-0.0582 z m 0.11539,-2.12937 c 0,-0.0317 -0.0488,-0.0573 -0.10833,-0.0568 -0.0926,7.5e-4 -0.0948,0.009 -0.0155,0.0568 0.11683,0.0703 0.12381,0.0703 0.12381,0 z m -0.12381,-0.57242 c 0,-0.0658 0.0295,-0.11956 0.0656,-0.11956 0.036,0 0.0483,-0.0259 0.0273,-0.0577 -0.0771,-0.11621 -0.21667,-0.058 -0.21667,0.0904 0,0.1267 -0.0201,0.14239 -0.13928,0.10884 -0.21262,-0.0598 -0.24244,-0.10766 -0.2184,-0.35021 0.0212,-0.21414 0.0404,-0.20537 0.14128,0.0645 0.0416,0.11123 0.045,0.11068 0.0973,-0.0157 0.0298,-0.0721 0.10101,-0.14775 0.1582,-0.16819 0.14161,-0.0506 0.34382,0.19001 0.31992,0.38074 -0.0232,0.18505 -0.23522,0.24533 -0.23522,0.0669 z m -0.42095,-0.59241 c -0.10522,-0.098 -0.0921,-0.36421 0.0223,-0.45265 0.13089,-0.10119 0.38028,-0.0142 0.54297,0.18933 0.13082,0.16368 0.10542,0.28078 -0.037,0.17067 -0.0613,-0.0474 -0.10006,-0.0352 -0.15678,0.0495 -0.0849,0.12663 -0.26001,0.147 -0.37145,0.0432 z m 0.29714,-0.21913 c 0,-0.0317 -0.0713,-0.0577 -0.15841,-0.0577 -0.0898,0 -0.14186,0.025 -0.12016,0.0577 0.0211,0.0317 0.0923,0.0577 0.15842,0.0577 0.0661,0 0.12015,-0.0259 0.12015,-0.0577 z m 0.12381,-0.51899 c 0,-0.0634 0.0334,-0.11533 0.0743,-0.11533 0.0569,0 0.0573,-0.0158 0.001,-0.0678 -0.0558,-0.052 -0.0994,-0.0455 -0.18656,0.028 -0.0877,0.074 -0.13052,0.0803 -0.18718,0.0275 -0.0566,-0.0528 -0.0734,-0.0394 -0.0734,0.0585 0,0.0698 -0.0279,0.12686 -0.0619,0.12686 -0.0341,0 -0.0619,-0.11768 -0.0619,-0.26152 0,-0.24635 0.007,-0.25783 0.12776,-0.19783 0.0939,0.0468 0.15029,0.0463 0.21271,-0.002 0.0602,-0.0465 0.12003,-0.0482 0.20542,-0.006 0.22845,0.11388 0.28571,0.52458 0.0732,0.52458 -0.0825,0 -0.12381,-0.0384 -0.12381,-0.11533 z m -3.63736,-4.19089 -2.73974,-3.40349 0.016,-3.51183 0.016,-3.51184 2.50435,3.1139 c 1.3774,1.71265 2.61028,3.23452 2.73974,3.38194 l 0.23539,0.26802 -0.016,3.53339 -0.016,3.53339 z m -95.037956,-6.15996 v -9.37055 l 2.553549,0.001 c 4.742933,0.002 6.290729,0.17235 7.356413,0.80936 0.674114,0.40296 1.194973,1.04494 1.444314,1.78019 0.252102,0.7434 0.283717,1.53389 0.283717,7.09408 0,6.11347 -0.02803,6.55734 -0.46865,7.42054 -0.357928,0.7012 -1.081929,1.19921 -2.069423,1.42345 -0.753133,0.17102 -1.807602,0.21198 -5.463047,0.21217 l -3.636873,2e-4 z m 6.066821,5.96128 c 0.523878,-0.27427 0.525978,-0.29922 0.525978,-6.2496 v -5.07452 l -0.142021,-0.26854 c -0.174907,-0.33074 -0.411071,-0.44658 -1.004992,-0.49296 l -0.431544,-0.0337 v 6.11124 c 0,3.36117 0.02089,6.13126 0.04643,6.15574 0.0824,0.079 0.764384,-0.0211 1.006151,-0.14766 z m 7.428298,-5.96128 v -9.37055 h 4.209486 4.209487 v 1.87411 1.87411 h -1.671414 -1.671414 v 1.79043 1.79043 l 1.547661,-0.0172 1.547661,-0.0172 -5.6e-5,1.80203 -5.5e-5,1.80203 h -1.547605 -1.547606 v 2.04711 2.0471 h 1.826175 1.826174 v 1.87411 1.87411 H 74.10353 69.739283 Z m 10.152291,-0.007 v -9.37778 l 3.296399,0.0315 c 4.983298,0.0476 5.671637,0.15877 6.666746,1.07727 0.927563,0.85615 1.264619,1.93194 1.26513,4.03793 3.86e-4,1.59452 -0.152972,2.4075 -0.55645,2.94985 -0.290581,0.3906 -0.883566,0.67888 -1.695714,0.82439 l -0.402378,0.0721 0.278569,0.0705 c 0.153213,0.0388 0.505086,0.17164 0.781939,0.29527 0.608837,0.27188 0.995105,0.64061 1.305169,1.24589 0.19769,0.38591 0.214807,0.46709 0.267495,1.26862 0.03096,0.47099 0.05705,2.21218 0.05798,3.86933 l 0.0017,3.01299 h -2.35236 -2.35236 l -0.0012,-3.53198 c -0.0012,-3.43243 -0.03352,-4.15202 -0.201021,-4.47474 -0.114689,-0.22097 -0.433439,-0.36459 -0.883915,-0.39827 l -0.399539,-0.0299 v 4.21744 4.21743 h -2.538072 -2.538073 z m 5.688101,-2.04797 c 0.784927,-0.12732 0.90351,-0.43949 0.862186,-2.26966 -0.021,-0.92996 -0.04245,-1.12833 -0.141881,-1.31191 -0.143058,-0.26412 -0.501331,-0.44078 -0.989032,-0.48767 l -0.343229,-0.033 v 2.08401 c 0,1.90734 0.0088,2.084 0.103262,2.084 0.05679,0 0.285706,-0.0296 0.508694,-0.0658 z m 7.497496,2.04797 v -9.37778 l 3.2964,0.0312 c 1.813019,0.0172 3.574968,0.0596 3.915439,0.0943 1.39658,0.14221 2.02814,0.36456 2.67327,0.94116 0.97156,0.86836 1.31882,1.94268 1.31882,4.07997 0,2.66977 -0.45118,3.43305 -2.22782,3.76889 l -0.40238,0.0761 0.24762,0.0743 c 0.46604,0.13984 0.98763,0.36042 1.25018,0.52869 0.32628,0.20912 0.78773,0.80308 0.96686,1.24454 0.1334,0.32875 0.13559,0.38746 0.15407,4.12496 l 0.0187,3.79147 h -2.32467 -2.324682 l -0.0027,-3.27248 c -0.0027,-3.30686 -0.04143,-4.24091 -0.192727,-4.65133 -0.107572,-0.2918 -0.429458,-0.45397 -0.964021,-0.48568 l -0.388159,-0.023 v 4.21625 4.21626 h -2.507121 -2.507121 z m 6.022563,-2.14033 c 0.135255,-0.0501 0.272299,-0.15488 0.323775,-0.2476 0.146044,-0.26308 0.235394,-1.22101 0.198674,-2.12998 -0.03674,-0.90951 -0.111059,-1.17408 -0.386495,-1.3759 -0.164589,-0.1206 -0.643523,-0.24026 -0.96161,-0.24026 h -0.182665 v 2.0816 2.0816 l 0.386901,-0.0413 c 0.212796,-0.0227 0.492435,-0.0804 0.62142,-0.12814 z m 6.013666,11.30188 c 0.0207,-0.11894 0.17502,-1.22827 0.34286,-2.46518 0.16784,-1.23691 0.34749,-2.54735 0.39921,-2.91208 0.0517,-0.36473 0.24792,-1.79193 0.43599,-3.17157 0.18807,-1.37963 0.43795,-3.20905 0.55528,-4.06537 0.11733,-0.85633 0.34688,-2.53654 0.51011,-3.73381 l 0.29679,-2.17685 h 3.63506 3.63505 l 0.0358,0.18741 c 0.079,0.41343 2.81739,18.33854 2.81739,18.44221 0,0.10841 -0.0709,0.11148 -2.56902,0.11148 -2.40527,0 -2.56905,-0.006 -2.56944,-0.10091 -2.2e-4,-0.0555 -0.0555,-0.7756 -0.1228,-1.6002 -0.0673,-0.82461 -0.12285,-1.53173 -0.1234,-1.57137 -7.6e-4,-0.0543 -0.22233,-0.0721 -0.89862,-0.0721 -0.6773,0 -0.89738,0.0177 -0.8967,0.0721 0.002,0.15551 -0.257,3.02076 -0.28403,3.14273 l -0.0288,0.12975 h -2.60423 -2.60424 z m 7.1293,-6.63147 c -0.0732,-0.33515 -0.56993,-5.31864 -0.69282,-6.95021 -0.0234,-0.31011 -0.0502,-0.55663 -0.0596,-0.54782 -0.009,0.009 -0.14436,0.96316 -0.29982,2.12078 -0.23794,1.7717 -0.37458,2.91636 -0.62467,5.23309 l -0.0327,0.30274 h 0.87212 0.87211 z m 6.40091,-2.52335 v -9.37106 l 3.26318,0.0149 3.26318,0.0149 0.10842,0.66314 c 0.0596,0.36473 0.20866,1.36378 0.33116,2.2201 0.1225,0.85633 0.36026,2.47174 0.52836,3.58982 0.1681,1.11808 0.30852,2.05225 0.31205,2.07594 0.009,0.0619 0.43337,-3.06994 0.79858,-5.89642 0.17212,-1.33206 0.32658,-2.48031 0.34324,-2.55167 l 0.0303,-0.12975 h 3.27975 3.27974 v 9.37128 9.37128 l -2.21308,-0.0152 -2.21307,-0.0151 -0.0309,-6.05322 -0.031,-6.05322 -0.2051,1.49769 c -0.35638,2.60236 -1.25048,9.07844 -1.36116,9.8591 l -0.10629,0.74965 -1.56107,0.0154 -1.56106,0.0154 -0.0288,-0.13074 c -0.0158,-0.0719 -0.0593,-0.33832 -0.0966,-0.59205 -0.11991,-0.8156 -0.66258,-4.46222 -1.17564,-7.90009 -0.27452,-1.83952 -0.51041,-3.37052 -0.52418,-3.40223 -0.0138,-0.0317 -0.0272,2.66051 -0.0299,5.98273 l -0.005,6.0404 h -2.1976 -2.1976 z m 17.51889,5.1e-4 v -9.37055 h 4.20949 4.20949 v 1.87319 1.87318 l -1.68689,0.0153 -1.68689,0.0153 v 1.75878 1.75878 h 1.5631 1.56309 l -1e-5,1.80203 -2e-5,1.80203 h -1.57935 -1.57935 l 0.0163,2.03269 0.0163,2.03269 1.84165,0.0153 1.84165,0.0153 v 1.87325 1.87325 h -4.36425 -4.36425 z m 18.29712,9.27993 c -0.0535,-0.0498 -0.0973,-0.11285 -0.0973,-0.14004 0,-0.11609 0.21128,-0.23066 0.42537,-0.23066 0.25123,0 0.37939,0.0811 0.37939,0.24017 0,0.2093 -0.51994,0.30523 -0.70748,0.13053 z m 0.58367,-0.14004 c 0,-0.0317 -0.11143,-0.0577 -0.24762,-0.0577 -0.13619,0 -0.24761,0.0259 -0.24761,0.0577 0,0.0317 0.11142,0.0577 0.24761,0.0577 0.13619,0 0.24762,-0.0259 0.24762,-0.0577 z m -0.58164,-0.41257 c -0.19864,-0.26419 0.2358,-0.50574 0.557,-0.30969 0.16784,0.10244 0.18594,0.31738 0.0307,0.36506 -0.0625,0.0192 -0.0771,-0.008 -0.0522,-0.0963 0.019,-0.0676 0.009,-0.13752 -0.0216,-0.15529 -0.0309,-0.0178 -0.0561,0.0202 -0.0561,0.0844 0,0.10948 -0.16192,0.23609 -0.30194,0.23609 -0.0344,0 -0.1045,-0.0559 -0.15589,-0.12425 z m 0.31855,-0.12083 c -0.0142,-0.0396 -0.0629,-0.0721 -0.10834,-0.0721 -0.0454,0 -0.0941,0.0324 -0.10833,0.0721 -0.0153,0.0429 0.0286,0.0721 0.10833,0.0721 0.0798,0 0.12368,-0.0292 0.10834,-0.0721 z m -0.35755,-0.44968 c -0.0584,-0.10162 -0.025,-0.27981 0.0547,-0.29128 0.53621,-0.0773 0.71841,-0.0108 0.67907,0.24764 -0.018,0.11847 -0.0558,0.13373 -0.34704,0.14038 -0.25712,0.006 -0.33958,-0.0148 -0.38668,-0.0967 z m 0.24921,-0.11255 c 0,-0.0317 -0.0279,-0.0577 -0.0619,-0.0577 -0.0341,0 -0.0619,0.0259 -0.0619,0.0577 0,0.0317 0.0279,0.0577 0.0619,0.0577 0.0341,0 0.0619,-0.0259 0.0619,-0.0577 z m 0.37143,0 c 0,-0.0317 -0.0418,-0.0577 -0.0929,-0.0577 -0.0511,0 -0.0928,0.0259 -0.0928,0.0577 0,0.0317 0.0418,0.0577 0.0928,0.0577 0.0511,0 0.0929,-0.0259 0.0929,-0.0577 z m -0.21029,-0.33638 c -0.0175,-0.0264 -0.11275,-0.037 -0.21159,-0.0235 -0.14138,0.0193 -0.18679,-6e-4 -0.21285,-0.0934 -0.0551,-0.19642 0.0773,-0.28357 0.41806,-0.27516 0.27316,0.007 0.3119,0.0233 0.32975,0.14056 0.0319,0.20954 -0.22081,0.40609 -0.32337,0.25151 z m -0.16114,-0.18261 c 0,-0.0317 -0.0279,-0.0577 -0.0619,-0.0577 -0.0341,0 -0.0619,0.0259 -0.0619,0.0577 0,0.0317 0.0279,0.0577 0.0619,0.0577 0.0341,0 0.0619,-0.0259 0.0619,-0.0577 z m 0.37143,0.003 c 0,-0.0779 -0.11285,-0.13185 -0.18672,-0.0893 -0.0346,0.0199 -0.0469,0.0604 -0.0273,0.0899 0.0465,0.07 0.21402,0.0696 0.21402,-5.8e-4 z m -0.61491,-0.45754 c -0.0789,-0.13727 -0.0256,-0.29551 0.0995,-0.29551 0.0622,0 0.0782,0.0359 0.0511,0.11533 -0.0539,0.1581 0.049,0.1462 0.1246,-0.0144 0.0743,-0.15765 0.32665,-0.17476 0.42547,-0.0288 0.11562,0.17074 -0.0265,0.30022 -0.35132,0.32017 -0.23097,0.0142 -0.296,-0.004 -0.34938,-0.0967 z m 0.61491,-0.12252 c 0,-0.0317 -0.0557,-0.0577 -0.12381,-0.0577 -0.0681,0 -0.12381,0.0259 -0.12381,0.0577 0,0.0317 0.0557,0.0577 0.12381,0.0577 0.0681,0 0.12381,-0.0259 0.12381,-0.0577 z m -0.44881,-0.3354 c -0.14885,-0.016 -0.17023,-0.0431 -0.17023,-0.21624 0,-0.1089 0.0279,-0.198 0.0619,-0.198 0.034,0 0.0619,0.0649 0.0619,0.14416 0,0.0793 0.0325,0.14417 0.0722,0.14417 0.0397,0 0.0546,-0.0164 0.0331,-0.0364 -0.0887,-0.0827 0.0907,-0.25191 0.26707,-0.25191 0.14314,0 0.19075,0.0312 0.2214,0.14491 0.0471,0.17494 -0.0818,0.35511 -0.18521,0.25879 -0.0482,-0.0449 -0.0412,-0.0774 0.0247,-0.11537 0.0731,-0.0421 0.0762,-0.0674 0.015,-0.12447 -0.0899,-0.0838 -0.18008,-0.0183 -0.2109,0.1533 -0.0159,0.0884 -0.0605,0.11106 -0.19096,0.0971 z m -104.781355,-3.86544 -2.73175,-3.39354 0.01596,-3.51024 0.01596,-3.51025 2.739261,3.39746 2.739262,3.39746 v 3.50632 c 0,1.92848 -0.01056,3.50633 -0.02347,3.50633 -0.01291,0 -1.252758,-1.5271 -2.755221,-3.39354 z M 154.833,151.94961 c -0.0175,-0.0264 -0.1127,-0.037 -0.21149,-0.0235 -0.21036,0.0288 -0.29731,-0.10031 -0.19156,-0.28437 0.0468,-0.0814 0.11127,-0.10904 0.21244,-0.091 0.0799,0.0142 0.1804,0.006 0.22332,-0.0191 0.11924,-0.0686 0.30139,0.0504 0.30139,0.19701 0,0.20325 -0.24037,0.36221 -0.3341,0.22095 z m -0.16114,-0.17921 c 0,-0.0298 -0.0279,-0.0703 -0.0619,-0.0899 -0.0341,-0.0196 -0.0619,0.005 -0.0619,0.0543 0,0.0495 0.0279,0.0899 0.0619,0.0899 0.0341,0 0.0619,-0.0244 0.0619,-0.0543 z m 0.33783,5.8e-4 c 0.0458,-0.069 -0.0707,-0.13737 -0.15312,-0.0899 -0.0692,0.0399 -0.0238,0.14358 0.0629,0.14358 0.03,0 0.0706,-0.0242 0.0902,-0.0537 z m -0.58704,-0.46808 c -0.0586,-0.10194 -0.0243,-0.2827 0.0547,-0.28845 0.0219,-0.002 0.15677,-0.0123 0.29973,-0.0239 0.29326,-0.0237 0.41113,0.0598 0.37934,0.26867 -0.018,0.11848 -0.0558,0.13373 -0.34704,0.14038 -0.25712,0.006 -0.33958,-0.0148 -0.38668,-0.0967 z m 0.59223,-0.0587 c 0.057,-0.0859 -0.009,-0.13256 -0.12761,-0.0902 -0.0547,0.0196 -0.0821,0.0617 -0.0609,0.0936 0.0502,0.0756 0.13713,0.074 0.18853,-0.003 z m -0.34302,-0.0538 c 0,-0.0317 -0.0279,-0.0577 -0.0619,-0.0577 -0.0341,0 -0.0619,0.0259 -0.0619,0.0577 0,0.0317 0.0279,0.0577 0.0619,0.0577 0.0341,0 0.0619,-0.0259 0.0619,-0.0577 z m -0.10904,-0.32674 c -0.13936,-0.0523 -0.21725,-0.2481 -0.13529,-0.3401 0.11477,-0.12881 0.1888,-0.0977 0.14595,0.0614 -0.0228,0.0845 -0.0122,0.14416 0.0255,0.14416 0.0354,0 0.0732,-0.0584 0.0841,-0.12975 0.0151,-0.0991 0.0668,-0.13398 0.21885,-0.14767 0.17193,-0.0155 0.20482,0.003 0.24127,0.13872 0.0314,0.11668 0.0132,0.17642 -0.0716,0.23417 -0.11273,0.0768 -0.35808,0.0957 -0.50872,0.0391 z m 0.43731,-0.22029 c 0.007,-0.0313 -0.0365,-0.0656 -0.0961,-0.0763 -0.0678,-0.0122 -0.10833,0.0161 -0.10833,0.0755 0,0.10032 0.18295,0.10103 0.20446,7.9e-4 z m -0.39017,-0.29969 c -0.29386,-0.0998 -0.26171,-0.38453 0.0506,-0.44844 0.26511,-0.0542 0.50651,0.0523 0.50651,0.22353 0,0.0782 -0.0209,0.15364 -0.0464,0.16764 -0.0935,0.0513 -0.42044,0.0879 -0.51071,0.0573 z m 0.40238,-0.22008 c 0,-0.0685 -0.24874,-0.1095 -0.37985,-0.0626 -0.0508,0.0181 -0.074,0.0606 -0.0516,0.0943 0.0503,0.0758 0.43145,0.0478 0.43145,-0.0317 z m -3.73021,-11.73111 -2.73974,-3.40568 0.016,-3.51049 0.016,-3.5105 2.73973,3.40235 2.73974,3.40234 -0.0159,3.51383 -0.016,3.51382 z m -101.467715,-3.39759 -2.732074,-3.39388 v -3.53557 -3.53556 l 2.754737,3.42154 2.754738,3.42155 v 3.5079 c 0,1.92935 -0.0102,3.5079 -0.02266,3.5079 -0.01246,0 -1.252097,-1.52724 -2.754738,-3.39388 z m 11.939224,-13.87676 c 0,-5.12208 -0.007,-9.33234 -0.01548,-9.35613 -0.0085,-0.0238 1.11948,-0.05 2.506649,-0.0583 l 2.522124,-0.0151 0.01595,3.55884 0.01595,3.55883 1.090388,-3.54377 1.090388,-3.54377 2.360772,-0.0151 c 1.298424,-0.008 2.360772,0.003 2.360772,0.0248 0,0.022 -0.151332,0.48287 -0.336292,1.02424 -1.14964,3.36496 -2.388496,7.0151 -2.447786,7.21212 -0.06561,0.21801 0.01243,0.49637 1.422557,5.07452 0.820585,2.66412 1.53085,4.96739 1.578369,5.11838 l 0.0864,0.27453 -2.608476,-0.015 -2.608477,-0.015 -0.166885,-0.63431 c -0.09179,-0.34887 -0.520863,-2.03557 -0.953502,-3.74822 -0.43264,-1.71265 -0.809431,-3.19175 -0.837314,-3.2869 -0.02788,-0.0952 -0.05321,1.59804 -0.05628,3.76264 l -0.0056,3.93563 H 64.26076 61.753639 Z m 13.061789,-0.0577 v -9.37055 h 2.538073 2.538073 v 9.37055 9.37055 h -2.538073 -2.538073 z m 9.161824,1.87411 V 115.4381 H 82.491551 81.00585 v -1.87411 -1.87411 h 5.509475 5.509475 v 1.87411 1.87411 h -1.485701 -1.485701 v 7.49644 7.49644 h -2.538073 -2.538073 z m 12.344292,7.33786 c 0.03543,-0.15965 0.121418,-0.78028 1.028677,-7.42436 0.272842,-1.99809 0.577905,-4.22972 0.677918,-4.95918 0.100013,-0.72946 0.323105,-2.36427 0.495761,-3.63289 0.172656,-1.26863 0.327635,-2.36519 0.344397,-2.43681 l 0.03048,-0.1302 3.633436,0.0149 3.63344,0.0149 1.40546,9.16872 c 0.773,5.0428 1.41988,9.25306 1.43751,9.35614 l 0.0321,0.18741 h -2.58414 -2.58414 l -0.10915,-1.45604 c -0.06,-0.80082 -0.12468,-1.55335 -0.14366,-1.67229 l -0.0345,-0.21624 h -0.87908 -0.87909 l -0.14503,1.67228 -0.14504,1.67229 h -2.625231 -2.625236 z m 7.130856,-6.7468 c -0.0565,-0.34381 -0.32948,-3.00259 -0.49873,-4.85827 -0.0853,-0.93561 -0.17462,-1.90871 -0.19841,-2.16243 l -0.0432,-0.46132 -0.14084,1.00914 c -0.42755,3.06357 -0.83889,6.60156 -0.77449,6.66154 0.0163,0.0152 0.40348,0.0276 0.86044,0.0276 h 0.83083 z m 6.40081,-2.46517 v -9.37055 l 2.12022,9.9e-4 2.12022,10e-4 1.35568,4.0788 c 0.74562,2.24333 1.37823,4.11772 1.40581,4.16529 0.0288,0.0497 0.0478,-0.10964 0.0447,-0.37482 -0.003,-0.25373 -0.002,-2.12856 0.003,-4.16629 l 0.008,-3.70497 h 2.10475 2.10474 v 9.37055 9.37055 h -2.22077 -2.22076 l -0.31157,-1.02356 c -0.93858,-3.08337 -2.24879,-7.30567 -2.27442,-7.32955 -0.0163,-0.0151 -0.0296,1.85811 -0.0296,4.16279 v 4.19032 h -2.10474 -2.10475 z m 15.35225,1.87411 v -7.49644 h -1.4857 -1.4857 v -1.87411 -1.87411 h 5.50947 5.50948 v 1.87411 1.87411 h -1.48571 -1.4857 v 7.49644 7.49644 h -2.53807 -2.53807 z m 9.16182,-1.87476 v -9.3712 l 2.5226,0.0151 c 1.38743,0.008 2.51563,0.0345 2.50712,0.0583 -0.009,0.0238 -0.0155,4.23405 -0.0155,9.35613 v 9.31289 h -2.50712 -2.50712 z m 16.91485,3.71983 -2.73973,-3.40293 0.016,-3.51735 0.016,-3.51736 2.73974,3.40293 2.73973,3.40293 -0.0159,3.51735 -0.016,3.51736 z m -101.46119,-3.40248 -2.73955,-3.40268 0.01595,-3.51607 0.01595,-3.51607 2.739261,3.40431 2.739262,3.40432 v 3.51444 c 0,1.93294 -0.007,3.51443 -0.01566,3.51443 -0.0086,0 -1.24846,-1.5312 -2.755213,-3.40268 z m 98.81526,-13.50761 c -2.96211,-3.67668 -5.39495,-6.70853 -5.4063,-6.73743 -0.0122,-0.0312 1.13298,-0.0507 2.81664,-0.0479 l 2.83728,0.005 2.58498,3.22404 2.58497,3.22404 -0.0159,3.50874 -0.016,3.50874 z M 49.821602,107.75544 47.082341,104.357 v -1.63873 -1.63874 l 1.532129,0.002 1.532129,0.002 2.723786,3.38262 c 1.498082,1.86044 2.733071,3.4034 2.74442,3.42879 0.01135,0.0254 -0.663747,0.0462 -1.500213,0.0462 h -1.520848 l -0.01644,1.60611 -0.01644,1.60611 z m 11.050324,0.0853 c -0.09809,-0.10295 -5.038589,-6.23291 -5.298211,-6.5738 l -0.142736,-0.18741 h 2.837701 2.8377 l 2.722418,3.38064 c 1.49733,1.85935 2.731704,3.40333 2.743053,3.43106 0.01159,0.0283 -1.211387,0.0504 -2.791572,0.0504 -2.600394,0 -2.819447,-0.008 -2.908353,-0.10092 z m 8.340955,-3.24655 c -1.484392,-1.84111 -2.714392,-3.38509 -2.733331,-3.43106 -0.02977,-0.0723 0.351361,-0.0836 2.813157,-0.0836 2.405469,0 2.852842,0.0127 2.881394,0.082 0.01859,0.0451 1.233345,1.57183 2.699456,3.39267 1.466111,1.82084 2.665657,3.32789 2.665657,3.34901 0,0.0211 -1.266173,0.0384 -2.813719,0.0384 h -2.813718 z m 10.933792,-0.0455 c -1.502197,-1.86611 -2.731268,-3.41009 -2.731268,-3.43106 0,-0.021 1.274453,-0.036 2.832118,-0.0333 l 2.832118,0.005 2.687978,3.35418 c 1.478388,1.8448 2.699448,3.38661 2.713468,3.42626 0.02014,0.057 -0.565048,0.0721 -2.788828,0.0721 H 82.87794 Z m 13.698362,3.34881 c -0.07708,-0.0481 -5.472584,-6.73969 -5.472584,-6.78716 0,-0.017 1.274453,-0.0289 2.832118,-0.0265 l 2.832118,0.004 2.692833,3.3538 c 1.481058,1.84459 2.70184,3.38661 2.712848,3.4267 0.01591,0.058 -0.548828,0.0727 -2.754737,0.072 -1.526114,-4.9e-4 -2.805282,-0.02 -2.842596,-0.0433 z m 10.888715,-0.0856 c -0.15638,-0.16001 -5.404253,-6.67374 -5.404253,-6.70784 0,-0.0135 1.274453,-0.0239 2.832113,-0.0232 l 2.83212,0.001 2.72379,3.38335 c 1.49808,1.86084 2.73307,3.40423 2.74442,3.42975 0.0114,0.0255 -1.24432,0.0464 -2.79038,0.0464 h -2.81101 z m 10.95914,0 c -0.11655,-0.12125 -4.96106,-6.13502 -5.27243,-6.54497 l -0.14235,-0.18741 h 2.83759 2.83758 l 2.72254,3.38001 c 1.49739,1.85901 2.73181,3.40299 2.74316,3.43107 0.0118,0.0292 -1.1848,0.0511 -2.79037,0.0511 h -2.81101 z m 8.36421,-3.2187 c -1.48323,-1.84165 -2.7121,-3.38563 -2.73082,-3.43106 -0.0292,-0.071 0.3673,-0.0826 2.81356,-0.0826 2.40547,0 2.85284,0.0127 2.88139,0.082 0.0186,0.0451 1.23335,1.57183 2.69946,3.39267 1.46611,1.82084 2.66566,3.32789 2.66566,3.34901 0,0.0211 -1.26731,0.0384 -2.81623,0.0384 h -2.81623 z m 10.93671,-0.0445 c -1.5022,-1.86611 -2.73127,-3.41009 -2.73127,-3.43106 0,-0.021 1.27471,-0.0381 2.8327,-0.0381 l 2.8327,0 0.0862,0.12975 c 0.0474,0.0714 1.25334,1.57763 2.67983,3.34726 1.42649,1.76964 2.60915,3.25523 2.62814,3.30132 0.0299,0.0725 -0.34406,0.0838 -2.78126,0.0838 h -2.81579 z"
       id="path1" /></g></svg>
