<svg width="60" height="60" viewBox="0 0 60 60" fill="none" xmlns="http://www.w3.org/2000/svg">
<g clip-path="url(#clip0_13_3883)">
<path d="M60 0H0V60H60V0Z" fill="white"/>
<path d="M58.5 1.5H1.5V58.5H58.5V1.5Z" fill="#008855"/>
<path d="M22.7131 7.407C22.5472 7.4068 22.383 7.40943 22.2163 7.41638C17.0748 7.53127 12.3864 10.9517 9.49438 15.5726C14.2502 23.5758 25.3052 25.6492 31.9569 19.3695C33.3386 18.2888 34.5272 16.9751 35.4913 15.4132C32.5968 10.8177 27.8564 7.41242 22.7137 7.40625L22.7131 7.407ZM27.7381 11.0445C29.4249 12.0949 30.8999 13.605 32.0038 15.357C31.2983 16.4999 30.4274 17.4724 29.4163 18.2632C24.5488 22.8585 16.462 21.3353 12.9819 15.4789C14.0811 13.7226 15.5299 12.2048 17.1999 11.1379C16.777 11.9941 16.568 12.9402 16.5909 13.8949C16.5549 14.6922 16.6809 15.4885 16.9612 16.2358C17.2416 16.9831 17.6704 17.6658 18.2219 18.2427C18.7734 18.8197 19.4361 19.2789 20.17 19.5926C20.9039 19.9063 21.6938 20.068 22.4919 20.068C23.29 20.068 24.0799 19.9063 24.8138 19.5926C25.5476 19.2789 26.2103 18.8197 26.7618 18.2427C27.3133 17.6658 27.7422 16.9831 28.0225 16.2358C28.3029 15.4885 28.4289 14.6922 28.3929 13.8949C28.4163 12.9048 28.1903 11.9248 27.7359 11.0449L27.7381 11.0445ZM22.3021 11.1585C22.6816 11.1315 23.0625 11.183 23.4211 11.3099C23.7797 11.4367 24.1083 11.6362 24.3863 11.8958C24.6643 12.1553 24.8858 12.4695 25.037 12.8186C25.1881 13.1676 25.2656 13.5441 25.2646 13.9245C25.2646 14.6581 24.9732 15.3616 24.4545 15.8804C23.9358 16.3991 23.2322 16.6905 22.4986 16.6905C21.765 16.6905 21.0615 16.3991 20.5428 15.8804C20.0241 15.3616 19.7326 14.6581 19.7326 13.9245C19.7308 13.224 19.9949 12.5488 20.4716 12.0354C20.9482 11.5221 21.6019 11.2086 22.3006 11.1585H22.3021Z" fill="white"/>
<path d="M44.0072 16.1878V21.2548H48.9722V16.1878H53.9372V11.2228H48.9722V6.25781H44.0072V11.2228H38.9402V16.1878H44.0072Z" fill="white"/>
<path d="M31.587 40.104C31.587 42.42 29.961 44.343 28.518 44.343C27.075 44.343 24.636 44.685 24.636 46.8855V53.6805H20.394V46.8855C20.394 44.7165 17.565 44.3415 15.972 44.3415C14.376 44.3415 13.353 42.5175 13.353 40.1025L31.587 40.104Z" fill="white"/>
<path d="M8.04309 20.1269C8.04309 20.3361 7.95996 20.5368 7.81199 20.6848C7.66403 20.8328 7.46334 20.9159 7.25409 20.9159C7.04483 20.9159 6.84415 20.8328 6.69618 20.6848C6.54821 20.5368 6.46509 20.3361 6.46509 20.1269C6.46509 19.9176 6.54821 19.7169 6.69618 19.569C6.84415 19.421 7.04483 19.3379 7.25409 19.3379C7.46334 19.3379 7.66403 19.421 7.81199 19.569C7.95996 19.7169 8.04309 19.9176 8.04309 20.1269ZM11.1121 23.8019C11.1121 24.0111 11.029 24.2118 10.881 24.3598C10.733 24.5078 10.5323 24.5909 10.3231 24.5909C10.1138 24.5909 9.91315 24.5078 9.76518 24.3598C9.61721 24.2118 9.53409 24.0111 9.53409 23.8019C9.53409 23.6983 9.5545 23.5957 9.59415 23.5C9.6338 23.4042 9.69191 23.3172 9.76518 23.244C9.83845 23.1707 9.92542 23.1126 10.0212 23.0729C10.1169 23.0333 10.2195 23.0129 10.3231 23.0129C10.4267 23.0129 10.5293 23.0333 10.625 23.0729C10.7208 23.1126 10.8077 23.1707 10.881 23.244C10.9543 23.3172 11.0124 23.4042 11.052 23.5C11.0917 23.5957 11.1121 23.6983 11.1121 23.8019ZM15.6271 23.8019C15.6271 24.0111 15.544 24.2118 15.396 24.3598C15.248 24.5078 15.0473 24.5909 14.8381 24.5909C14.6288 24.5909 14.4281 24.5078 14.2802 24.3598C14.1322 24.2118 14.0491 24.0111 14.0491 23.8019C14.0491 23.5926 14.1322 23.3919 14.2802 23.244C14.4281 23.096 14.6288 23.0129 14.8381 23.0129C15.0473 23.0129 15.248 23.096 15.396 23.244C15.544 23.3919 15.6271 23.5926 15.6271 23.8019ZM30.9991 23.8019C30.9991 24.0111 30.916 24.2118 30.768 24.3598C30.62 24.5078 30.4193 24.5909 30.2101 24.5909C30.0008 24.5909 29.8001 24.5078 29.6522 24.3598C29.5042 24.2118 29.4211 24.0111 29.4211 23.8019C29.4211 23.5926 29.5042 23.3919 29.6522 23.244C29.8001 23.096 30.0008 23.0129 30.2101 23.0129C30.4193 23.0129 30.62 23.096 30.768 23.244C30.916 23.3919 30.9991 23.5926 30.9991 23.8019ZM35.4481 23.8019C35.4481 24.0111 35.365 24.2118 35.217 24.3598C35.069 24.5078 34.8683 24.5909 34.6591 24.5909C34.4498 24.5909 34.2491 24.5078 34.1012 24.3598C33.9532 24.2118 33.8701 24.0111 33.8701 23.8019C33.8701 23.5926 33.9532 23.3919 34.1012 23.244C34.2491 23.096 34.4498 23.0129 34.6591 23.0129C34.8683 23.0129 35.069 23.096 35.217 23.244C35.365 23.3919 35.4481 23.5926 35.4481 23.8019ZM33.5371 26.8559C33.5371 27.0651 33.454 27.2658 33.306 27.4138C33.158 27.5618 32.9573 27.6449 32.7481 27.6449C32.5388 27.6449 32.3381 27.5618 32.1902 27.4138C32.0422 27.2658 31.9591 27.0651 31.9591 26.8559C31.9591 26.6466 32.0422 26.4459 32.1902 26.298C32.3381 26.15 32.5388 26.0669 32.7481 26.0669C32.9573 26.0669 33.158 26.15 33.306 26.298C33.454 26.4459 33.5371 26.6466 33.5371 26.8559ZM29.6821 26.8559C29.6821 27.0651 29.599 27.2658 29.451 27.4138C29.303 27.5618 29.1023 27.6449 28.8931 27.6449C28.6838 27.6449 28.4831 27.5618 28.3352 27.4138C28.1872 27.2658 28.1041 27.0651 28.1041 26.8559C28.1041 26.6466 28.1872 26.4459 28.3352 26.298C28.4831 26.15 28.6838 26.0669 28.8931 26.0669C29.1023 26.0669 29.303 26.15 29.451 26.298C29.599 26.4459 29.6821 26.6466 29.6821 26.8559ZM26.6251 26.8559C26.6251 27.0651 26.542 27.2658 26.394 27.4138C26.246 27.5618 26.0453 27.6449 25.8361 27.6449C25.6268 27.6449 25.4261 27.5618 25.2782 27.4138C25.1302 27.2658 25.0471 27.0651 25.0471 26.8559C25.0471 26.6466 25.1302 26.4459 25.2782 26.298C25.4261 26.15 25.6268 26.0669 25.8361 26.0669C26.0453 26.0669 26.246 26.15 26.394 26.298C26.542 26.4459 26.6251 26.6466 26.6251 26.8559ZM23.3191 26.8559C23.3191 27.0651 23.236 27.2658 23.088 27.4138C22.94 27.5618 22.7393 27.6449 22.5301 27.6449C22.3208 27.6449 22.1201 27.5618 21.9722 27.4138C21.8242 27.2658 21.7411 27.0651 21.7411 26.8559C21.7411 26.6466 21.8242 26.4459 21.9722 26.298C22.1201 26.15 22.3208 26.0669 22.5301 26.0669C22.7393 26.0669 22.94 26.15 23.088 26.298C23.236 26.4459 23.3191 26.6466 23.3191 26.8559ZM19.9501 26.8559C19.9501 27.0651 19.867 27.2658 19.719 27.4138C19.571 27.5618 19.3703 27.6449 19.1611 27.6449C18.9518 27.6449 18.7511 27.5618 18.6032 27.4138C18.4552 27.2658 18.3721 27.0651 18.3721 26.8559C18.3721 26.6466 18.4552 26.4459 18.6032 26.298C18.7511 26.15 18.9518 26.0669 19.1611 26.0669C19.3703 26.0669 19.571 26.15 19.719 26.298C19.867 26.4459 19.9501 26.6466 19.9501 26.8559ZM16.9261 26.8559C16.9261 27.0651 16.843 27.2658 16.695 27.4138C16.547 27.5618 16.3463 27.6449 16.1371 27.6449C15.9278 27.6449 15.7271 27.5618 15.5792 27.4138C15.4312 27.2658 15.3481 27.0651 15.3481 26.8559C15.3481 26.6466 15.4312 26.4459 15.5792 26.298C15.7271 26.15 15.9278 26.0669 16.1371 26.0669C16.3463 26.0669 16.547 26.15 16.695 26.298C16.843 26.4459 16.9261 26.6466 16.9261 26.8559ZM13.0471 26.8559C13.0471 27.0651 12.964 27.2658 12.816 27.4138C12.668 27.5618 12.4673 27.6449 12.2581 27.6449C12.0488 27.6449 11.8481 27.5618 11.7002 27.4138C11.5522 27.2658 11.4691 27.0651 11.4691 26.8559C11.4691 26.6466 11.5522 26.4459 11.7002 26.298C11.8481 26.15 12.0488 26.0669 12.2581 26.0669C12.4673 26.0669 12.668 26.15 12.816 26.298C12.964 26.4459 13.0471 26.6466 13.0471 26.8559ZM14.3551 29.6519C14.3551 29.8611 14.272 30.0618 14.124 30.2098C13.976 30.3578 13.7753 30.4409 13.5661 30.4409C13.3568 30.4409 13.1561 30.3578 13.0082 30.2098C12.8602 30.0618 12.7771 29.8611 12.7771 29.6519C12.7771 29.4426 12.8602 29.2419 13.0082 29.094C13.1561 28.946 13.3568 28.8629 13.5661 28.8629C13.7753 28.8629 13.976 28.946 14.124 29.094C14.272 29.2419 14.3551 29.4426 14.3551 29.6519ZM17.8111 29.6519C17.8111 29.8611 17.728 30.0618 17.58 30.2098C17.432 30.3578 17.2313 30.4409 17.0221 30.4409C16.8128 30.4409 16.6121 30.3578 16.4642 30.2098C16.3162 30.0618 16.2331 29.8611 16.2331 29.6519C16.2331 29.4426 16.3162 29.2419 16.4642 29.094C16.6121 28.946 16.8128 28.8629 17.0221 28.8629C17.2313 28.8629 17.432 28.946 17.58 29.094C17.728 29.2419 17.8111 29.4426 17.8111 29.6519ZM20.6191 29.6519C20.6191 29.8611 20.536 30.0618 20.388 30.2098C20.24 30.3578 20.0393 30.4409 19.8301 30.4409C19.6208 30.4409 19.4201 30.3578 19.2722 30.2098C19.1242 30.0618 19.0411 29.8611 19.0411 29.6519C19.0411 29.4426 19.1242 29.2419 19.2722 29.094C19.4201 28.946 19.6208 28.8629 19.8301 28.8629C20.0393 28.8629 20.24 28.946 20.388 29.094C20.536 29.2419 20.6191 29.4426 20.6191 29.6519ZM23.341 29.6519C23.341 29.8611 23.2579 30.0618 23.11 30.2098C22.962 30.3578 22.7613 30.4409 22.552 30.4409C22.3428 30.4409 22.1421 30.3578 21.9941 30.2098C21.8462 30.0618 21.763 29.8611 21.763 29.6519C21.763 29.4426 21.8462 29.2419 21.9941 29.094C22.1421 28.946 22.3428 28.8629 22.552 28.8629C22.7613 28.8629 22.962 28.946 23.11 29.094C23.2579 29.2419 23.341 29.4426 23.341 29.6519ZM25.978 29.6519C25.978 29.8611 25.8949 30.0618 25.747 30.2098C25.599 30.3578 25.3983 30.4409 25.189 30.4409C24.9798 30.4409 24.7791 30.3578 24.6311 30.2098C24.4832 30.0618 24.4 29.8611 24.4 29.6519C24.4 29.5483 24.4205 29.4457 24.4601 29.35C24.4998 29.2542 24.5579 29.1672 24.6311 29.094C24.7044 29.0207 24.7914 28.9626 24.8871 28.9229C24.9828 28.8833 25.0854 28.8629 25.189 28.8629C25.2927 28.8629 25.3953 28.8833 25.491 28.9229C25.5867 28.9626 25.6737 29.0207 25.747 29.094C25.8202 29.1672 25.8783 29.2542 25.918 29.35C25.9576 29.4457 25.978 29.5483 25.978 29.6519ZM28.84 29.6519C28.84 29.8611 28.7569 30.0618 28.6089 30.2098C28.461 30.3578 28.2603 30.4409 28.051 30.4409C27.8418 30.4409 27.6411 30.3578 27.4931 30.2098C27.3452 30.0618 27.262 29.8611 27.262 29.6519C27.262 29.4426 27.3452 29.2419 27.4931 29.094C27.6411 28.946 27.8418 28.8629 28.051 28.8629C28.2603 28.8629 28.461 28.946 28.6089 29.094C28.7569 29.2419 28.84 29.4426 28.84 29.6519ZM32.254 29.6519C32.254 29.8611 32.1709 30.0618 32.0229 30.2098C31.875 30.3578 31.6743 30.4409 31.465 30.4409C31.2558 30.4409 31.0551 30.3578 30.9071 30.2098C30.7592 30.0618 30.676 29.8611 30.676 29.6519C30.676 29.4426 30.7592 29.2419 30.9071 29.094C31.0551 28.946 31.2558 28.8629 31.465 28.8629C31.6743 28.8629 31.875 28.946 32.0229 29.094C32.1709 29.2419 32.254 29.4426 32.254 29.6519ZM31.324 32.2469C31.324 32.4561 31.2409 32.6568 31.0929 32.8048C30.945 32.9528 30.7443 33.0359 30.535 33.0359C30.3258 33.0359 30.1251 32.9528 29.9771 32.8048C29.8292 32.6568 29.746 32.4561 29.746 32.2469C29.746 32.0376 29.8292 31.8369 29.9771 31.689C30.1251 31.541 30.3258 31.4579 30.535 31.4579C30.7443 31.4579 30.945 31.541 31.0929 31.689C31.2409 31.8369 31.324 32.0376 31.324 32.2469ZM28.18 32.2469C28.18 32.4561 28.0969 32.6568 27.9489 32.8048C27.801 32.9528 27.6003 33.0359 27.391 33.0359C27.1818 33.0359 26.9811 32.9528 26.8331 32.8048C26.6852 32.6568 26.602 32.4561 26.602 32.2469C26.602 32.0376 26.6852 31.8369 26.8331 31.689C26.9811 31.541 27.1818 31.4579 27.391 31.4579C27.6003 31.4579 27.801 31.541 27.9489 31.689C28.0969 31.8369 28.18 32.0376 28.18 32.2469ZM25.6525 32.2469C25.6525 32.4561 25.5694 32.6568 25.4214 32.8048C25.2734 32.9528 25.0727 33.0359 24.8635 33.0359C24.6542 33.0359 24.4535 32.9528 24.3056 32.8048C24.1576 32.6568 24.0745 32.4561 24.0745 32.2469C24.0745 32.0376 24.1576 31.8369 24.3056 31.689C24.4535 31.541 24.6542 31.4579 24.8635 31.4579C25.0727 31.4579 25.2734 31.541 25.4214 31.689C25.5694 31.8369 25.6525 32.0376 25.6525 32.2469ZM23.3185 32.2469C23.3185 32.4561 23.2354 32.6568 23.0874 32.8048C22.9394 32.9528 22.7387 33.0359 22.5295 33.0359C22.3202 33.0359 22.1195 32.9528 21.9716 32.8048C21.8236 32.6568 21.7405 32.4561 21.7405 32.2469C21.7405 32.0376 21.8236 31.8369 21.9716 31.689C22.1195 31.541 22.3202 31.4579 22.5295 31.4579C22.7387 31.4579 22.9394 31.541 23.0874 31.689C23.2354 31.8369 23.3185 32.0376 23.3185 32.2469ZM20.9425 32.2469C20.9425 32.4561 20.8594 32.6568 20.7114 32.8048C20.5634 32.9528 20.3627 33.0359 20.1535 33.0359C19.9442 33.0359 19.7435 32.9528 19.5956 32.8048C19.4476 32.6568 19.3645 32.4561 19.3645 32.2469C19.3645 32.0376 19.4476 31.8369 19.5956 31.689C19.7435 31.541 19.9442 31.4579 20.1535 31.4579C20.3627 31.4579 20.5634 31.541 20.7114 31.689C20.8594 31.8369 20.9425 32.0376 20.9425 32.2469ZM18.3715 32.2469C18.3715 32.4561 18.2884 32.6568 18.1404 32.8048C17.9924 32.9528 17.7917 33.0359 17.5825 33.0359C17.3732 33.0359 17.1725 32.9528 17.0246 32.8048C16.8766 32.6568 16.7935 32.4561 16.7935 32.2469C16.7935 32.0376 16.8766 31.8369 17.0246 31.689C17.1725 31.541 17.3732 31.4579 17.5825 31.4579C17.7917 31.4579 17.9924 31.541 18.1404 31.689C18.2884 31.8369 18.3715 32.0376 18.3715 32.2469ZM15.2725 32.2469C15.2725 32.4561 15.1894 32.6568 15.0414 32.8048C14.8934 32.9528 14.6927 33.0359 14.4835 33.0359C14.2742 33.0359 14.0736 32.9528 13.9256 32.8048C13.7776 32.6568 13.6945 32.4561 13.6945 32.2469C13.6945 32.0376 13.7776 31.8369 13.9256 31.689C14.0736 31.541 14.2742 31.4579 14.4835 31.4579C14.6927 31.4579 14.8934 31.541 15.0414 31.689C15.1894 31.8369 15.2725 32.0376 15.2725 32.2469ZM15.8335 34.4249C15.8335 34.6341 15.7504 34.8348 15.6024 34.9828C15.4544 35.1308 15.2537 35.2139 15.0445 35.2139C14.8352 35.2139 14.6346 35.1308 14.4866 34.9828C14.3386 34.8348 14.2555 34.6341 14.2555 34.4249C14.2555 34.2156 14.3386 34.0149 14.4866 33.867C14.6346 33.719 14.8352 33.6359 15.0445 33.6359C15.2537 33.6359 15.4544 33.719 15.6024 33.867C15.7504 34.0149 15.8335 34.2156 15.8335 34.4249ZM18.6955 34.4249C18.6955 34.6341 18.6124 34.8348 18.4644 34.9828C18.3164 35.1308 18.1157 35.2139 17.9065 35.2139C17.6972 35.2139 17.4965 35.1308 17.3486 34.9828C17.2006 34.8348 17.1175 34.6341 17.1175 34.4249C17.1175 34.2156 17.2006 34.0149 17.3486 33.867C17.4965 33.719 17.6972 33.6359 17.9065 33.6359C18.1157 33.6359 18.3164 33.719 18.4644 33.867C18.6124 34.0149 18.6955 34.2156 18.6955 34.4249ZM21.1585 34.4249C21.1585 34.6341 21.0754 34.8348 20.9274 34.9828C20.7794 35.1308 20.5787 35.2139 20.3695 35.2139C20.1602 35.2139 19.9595 35.1308 19.8116 34.9828C19.6636 34.8348 19.5805 34.6341 19.5805 34.4249C19.5805 34.2156 19.6636 34.0149 19.8116 33.867C19.9595 33.719 20.1602 33.6359 20.3695 33.6359C20.5787 33.6359 20.7794 33.719 20.9274 33.867C21.0754 34.0149 21.1585 34.2156 21.1585 34.4249ZM23.3395 34.4249C23.3395 34.6341 23.2564 34.8348 23.1084 34.9828C22.9604 35.1308 22.7597 35.2139 22.5505 35.2139C22.3412 35.2139 22.1405 35.1308 21.9926 34.9828C21.8446 34.8348 21.7615 34.6341 21.7615 34.4249C21.7615 34.2156 21.8446 34.0149 21.9926 33.867C22.1405 33.719 22.3412 33.6359 22.5505 33.6359C22.7597 33.6359 22.9604 33.719 23.1084 33.867C23.2564 34.0149 23.3395 34.2156 23.3395 34.4249ZM25.4785 34.4249C25.4785 34.6341 25.3954 34.8348 25.2474 34.9828C25.0994 35.1308 24.8987 35.2139 24.6895 35.2139C24.4802 35.2139 24.2795 35.1308 24.1316 34.9828C23.9836 34.8348 23.9005 34.6341 23.9005 34.4249C23.9005 34.2156 23.9836 34.0149 24.1316 33.867C24.2795 33.719 24.4802 33.6359 24.6895 33.6359C24.8987 33.6359 25.0994 33.719 25.2474 33.867C25.3954 34.0149 25.4785 34.2156 25.4785 34.4249ZM27.8785 34.4249C27.8785 34.6341 27.7954 34.8348 27.6474 34.9828C27.4994 35.1308 27.2987 35.2139 27.0895 35.2139C26.8802 35.2139 26.6795 35.1308 26.5316 34.9828C26.3836 34.8348 26.3005 34.6341 26.3005 34.4249C26.3005 34.2156 26.3836 34.0149 26.5316 33.867C26.6795 33.719 26.8802 33.6359 27.0895 33.6359C27.2987 33.6359 27.4994 33.719 27.6474 33.867C27.7954 34.0149 27.8785 34.2156 27.8785 34.4249ZM30.7615 34.4249C30.7615 34.6341 30.6784 34.8348 30.5304 34.9828C30.3824 35.1308 30.1817 35.2139 29.9725 35.2139C29.7632 35.2139 29.5625 35.1308 29.4146 34.9828C29.2666 34.8348 29.1835 34.6341 29.1835 34.4249C29.1835 34.2156 29.2666 34.0149 29.4146 33.867C29.5625 33.719 29.7632 33.6359 29.9725 33.6359C30.1817 33.6359 30.3824 33.719 30.5304 33.867C30.6784 34.0149 30.7615 34.2156 30.7615 34.4249ZM30.3835 36.6029C30.3835 36.8121 30.3004 37.0128 30.1524 37.1608C30.0044 37.3088 29.8037 37.3919 29.5945 37.3919C29.3852 37.3919 29.1845 37.3088 29.0366 37.1608C28.8886 37.0128 28.8055 36.8121 28.8055 36.6029C28.8055 36.3936 28.8886 36.1929 29.0366 36.045C29.1845 35.897 29.3852 35.8139 29.5945 35.8139C29.8037 35.8139 30.0044 35.897 30.1524 36.045C30.3004 36.1929 30.3835 36.3936 30.3835 36.6029ZM27.7255 36.6029C27.7255 36.8121 27.6424 37.0128 27.4944 37.1608C27.3464 37.3088 27.1457 37.3919 26.9365 37.3919C26.7272 37.3919 26.5265 37.3088 26.3786 37.1608C26.2306 37.0128 26.1475 36.8121 26.1475 36.6029C26.1475 36.3936 26.2306 36.1929 26.3786 36.045C26.5265 35.897 26.7272 35.8139 26.9365 35.8139C27.1457 35.8139 27.3464 35.897 27.4944 36.045C27.6424 36.1929 27.7255 36.3936 27.7255 36.6029ZM25.4035 36.6029C25.4035 36.8121 25.3204 37.0128 25.1724 37.1608C25.0244 37.3088 24.8237 37.3919 24.6145 37.3919C24.4052 37.3919 24.2045 37.3088 24.0566 37.1608C23.9086 37.0128 23.8255 36.8121 23.8255 36.6029C23.8255 36.3936 23.9086 36.1929 24.0566 36.045C24.2045 35.897 24.4052 35.8139 24.6145 35.8139C24.8237 35.8139 25.0244 35.897 25.1724 36.045C25.3204 36.1929 25.4035 36.3936 25.4035 36.6029ZM23.3305 36.6029C23.3305 36.8121 23.2474 37.0128 23.0994 37.1608C22.9514 37.3088 22.7507 37.3919 22.5415 37.3919C22.3322 37.3919 22.1315 37.3088 21.9836 37.1608C21.8356 37.0128 21.7525 36.8121 21.7525 36.6029C21.7525 36.3936 21.8356 36.1929 21.9836 36.045C22.1315 35.897 22.3322 35.8139 22.5415 35.8139C22.7507 35.8139 22.9514 35.897 23.0994 36.045C23.2474 36.1929 23.3305 36.3936 23.3305 36.6029ZM21.1705 36.6029C21.1705 36.8121 21.0874 37.0128 20.9394 37.1608C20.7914 37.3088 20.5907 37.3919 20.3815 37.3919C20.1722 37.3919 19.9715 37.3088 19.8236 37.1608C19.6756 37.0128 19.5925 36.8121 19.5925 36.6029C19.5925 36.3936 19.6756 36.1929 19.8236 36.045C19.9715 35.897 20.1722 35.8139 20.3815 35.8139C20.5907 35.8139 20.7914 35.897 20.9394 36.045C21.0874 36.1929 21.1705 36.3936 21.1705 36.6029ZM18.8806 36.6029C18.8806 36.8121 18.7975 37.0128 18.6495 37.1608C18.5015 37.3088 18.3008 37.3919 18.0916 37.3919C17.8823 37.3919 17.6816 37.3088 17.5337 37.1608C17.3857 37.0128 17.3026 36.8121 17.3026 36.6029C17.3026 36.3936 17.3857 36.1929 17.5337 36.045C17.6816 35.897 17.8823 35.8139 18.0916 35.8139C18.3008 35.8139 18.5015 35.897 18.6495 36.045C18.7975 36.1929 18.8806 36.3936 18.8806 36.6029ZM16.2016 36.6029C16.2016 36.8121 16.1185 37.0128 15.9705 37.1608C15.8225 37.3088 15.6218 37.3919 15.4126 37.3919C15.2033 37.3919 15.0026 37.3088 14.8547 37.1608C14.7067 37.0128 14.6236 36.8121 14.6236 36.6029C14.6236 36.3936 14.7067 36.1929 14.8547 36.045C15.0026 35.897 15.2033 35.8139 15.4126 35.8139C15.6218 35.8139 15.8225 35.897 15.9705 36.045C16.1185 36.1929 16.2016 36.3936 16.2016 36.6029ZM16.3846 38.5979C16.3846 38.8071 16.3015 39.0078 16.1535 39.1558C16.0055 39.3038 15.8048 39.3869 15.5956 39.3869C15.3863 39.3869 15.1856 39.3038 15.0377 39.1558C14.8897 39.0078 14.8066 38.8071 14.8066 38.5979C14.8066 38.3886 14.8897 38.1879 15.0377 38.04C15.1856 37.892 15.3863 37.8089 15.5956 37.8089C15.8048 37.8089 16.0055 37.892 16.1535 38.04C16.3015 38.1879 16.3846 38.3886 16.3846 38.5979ZM18.9556 38.5979C18.9556 38.8071 18.8725 39.0078 18.7245 39.1558C18.5765 39.3038 18.3758 39.3869 18.1666 39.3869C17.9573 39.3869 17.7566 39.3038 17.6087 39.1558C17.4607 39.0078 17.3776 38.8071 17.3776 38.5979C17.3776 38.3886 17.4607 38.1879 17.6087 38.04C17.7566 37.892 17.9573 37.8089 18.1666 37.8089C18.3758 37.8089 18.5765 37.892 18.7245 38.04C18.8725 38.1879 18.9556 38.3886 18.9556 38.5979ZM21.1486 38.5979C21.1486 38.8071 21.0655 39.0078 20.9175 39.1558C20.7695 39.3038 20.5688 39.3869 20.3596 39.3869C20.1503 39.3869 19.9496 39.3038 19.8017 39.1558C19.6537 39.0078 19.5706 38.8071 19.5706 38.5979C19.5706 38.3886 19.6537 38.1879 19.8017 38.04C19.9496 37.892 20.1503 37.8089 20.3596 37.8089C20.5688 37.8089 20.7695 37.892 20.9175 38.04C21.0655 38.1879 21.1486 38.3886 21.1486 38.5979ZM23.3206 38.5979C23.3206 38.8071 23.2374 39.0078 23.0895 39.1558C22.9415 39.3038 22.7408 39.3869 22.5316 39.3869C22.3223 39.3869 22.1216 39.3038 21.9737 39.1558C21.8257 39.0078 21.7426 38.8071 21.7426 38.5979C21.7426 38.3886 21.8257 38.1879 21.9737 38.04C22.1216 37.892 22.3223 37.8089 22.5316 37.8089C22.7408 37.8089 22.9415 37.892 23.0895 38.04C23.2374 38.1879 23.3206 38.3886 23.3206 38.5979ZM25.4806 38.5979C25.4806 38.8071 25.3975 39.0078 25.2495 39.1558C25.1015 39.3038 24.9008 39.3869 24.6916 39.3869C24.4823 39.3869 24.2816 39.3038 24.1337 39.1558C23.9857 39.0078 23.9026 38.8071 23.9026 38.5979C23.9026 38.3886 23.9857 38.1879 24.1337 38.04C24.2816 37.892 24.4823 37.8089 24.6916 37.8089C24.9008 37.8089 25.1015 37.892 25.2495 38.04C25.3975 38.1879 25.4806 38.3886 25.4806 38.5979ZM27.6946 38.5979C27.6946 38.8071 27.6114 39.0078 27.4635 39.1558C27.3155 39.3038 27.1148 39.3869 26.9056 39.3869C26.6963 39.3869 26.4956 39.3038 26.3477 39.1558C26.1997 39.0078 26.1166 38.8071 26.1166 38.5979C26.1166 38.3886 26.1997 38.1879 26.3477 38.04C26.4956 37.892 26.6963 37.8089 26.9056 37.8089C27.1148 37.8089 27.3155 37.892 27.4635 38.04C27.6114 38.1879 27.6946 38.3886 27.6946 38.5979ZM30.1906 38.5979C30.1906 38.8071 30.1075 39.0078 29.9595 39.1558C29.8115 39.3038 29.6108 39.3869 29.4016 39.3869C29.1923 39.3869 28.9916 39.3038 28.8437 39.1558C28.6957 39.0078 28.6126 38.8071 28.6126 38.5979C28.6126 38.3886 28.6957 38.1879 28.8437 38.04C28.9916 37.892 29.1923 37.8089 29.4016 37.8089C29.6108 37.8089 29.8115 37.892 29.9595 38.04C30.1075 38.1879 30.1906 38.3886 30.1906 38.5979ZM38.5606 20.1269C38.5606 20.3361 38.4774 20.5368 38.3295 20.6848C38.1815 20.8328 37.9808 20.9159 37.7716 20.9159C37.5623 20.9159 37.3616 20.8328 37.2137 20.6848C37.0657 20.5368 36.9826 20.3361 36.9826 20.1269C36.9826 19.9176 37.0657 19.7169 37.2137 19.569C37.3616 19.421 37.5623 19.3379 37.7716 19.3379C37.9808 19.3379 38.1815 19.421 38.3295 19.569C38.4774 19.7169 38.5606 19.9176 38.5606 20.1269Z" fill="white"/>
</g>
<defs>
<clipPath id="clip0_13_3883">
<rect width="60" height="60" fill="white"/>
</clipPath>
</defs>
</svg>
