<?xml version="1.0" encoding="UTF-8" standalone="no"?>
<!-- Created with Inkscape (http://www.inkscape.org/) -->

<svg
   width="210mm"
   height="297mm"
   viewBox="0 0 210 297"
   version="1.1"
   id="svg1"
   xml:space="preserve"
   inkscape:version="1.3.2 (091e20e, 2023-11-25, custom)"
   sodipodi:docname="Imagen 2 mangera roja.svg"
   xmlns:inkscape="http://www.inkscape.org/namespaces/inkscape"
   xmlns:sodipodi="http://sodipodi.sourceforge.net/DTD/sodipodi-0.dtd"
   xmlns="http://www.w3.org/2000/svg"
   xmlns:svg="http://www.w3.org/2000/svg"><sodipodi:namedview
     id="namedview1"
     pagecolor="#ffffff"
     bordercolor="#000000"
     borderopacity="0.25"
     inkscape:showpageshadow="2"
     inkscape:pageopacity="0.0"
     inkscape:pagecheckerboard="0"
     inkscape:deskcolor="#d1d1d1"
     inkscape:document-units="mm"
     inkscape:zoom="22.627417"
     inkscape:cx="410.56387"
     inkscape:cy="533.31319"
     inkscape:window-width="1920"
     inkscape:window-height="1017"
     inkscape:window-x="-8"
     inkscape:window-y="-8"
     inkscape:window-maximized="1"
     inkscape:current-layer="svg1" /><defs
     id="defs1" /><g
     inkscape:label="Capa 1"
     inkscape:groupmode="layer"
     id="layer1"
     style="display:inline"><path
       style="fill:#ff0000;stroke:#000000;stroke-width:0.165"
       d="m 106.69481,139.54659 v 4.34105 h 4.48801 v -4.34105 z"
       id="path1" /><path
       style="fill:#ffffff;fill-opacity:1;stroke:none;stroke-width:0.1;stroke-dasharray:none"
       d="m 109.24202,142.10016 -0.007,0.20672 0.12976,-0.0578 -0.002,-2.31187 -0.13247,-0.0485 0.004,0.12924 z"
       id="path4"
       sodipodi:nodetypes="ccccccc" /><path
       style="fill:#ffffff;fill-opacity:1;stroke:none;stroke-width:0.1;stroke-dasharray:none"
       d="m 108.1537,139.96164 c -0.0536,-0.0461 -0.0985,-0.0477 -0.1246,-0.0114 -0.0501,0.034 -0.0487,0.0778 -0.0616,0.1123 v 2.11034 c 0.0158,0.0338 0.0245,0.07 0.0879,0.0879 l 0.09,0.003 c 0.0189,-0.0224 0.0378,-0.0343 0.0567,-0.0876 l 10e-4,-2.11444 c -0.0199,-0.0424 -0.045,-0.0989 -0.0494,-0.1001 z"
       id="path6-7"
       sodipodi:nodetypes="ccccccccc" /><path
       style="fill:#ffffff;fill-opacity:1;stroke:none;stroke-width:0.1;stroke-dasharray:none"
       d="m 109.55912,141.01806 0.60061,0.004 0.11028,-0.2009 0.1893,-0.0987 0.3561,0.006 0.15915,0.10584 0.0556,0.20504 -0.006,0.14131 -0.10379,0.18418 -0.18448,0.1041 h -0.27697 l -0.18672,-0.12288 -0.11851,-0.19931 -0.59516,-0.003 z"
       id="path2"
       sodipodi:nodetypes="ccccccccccccccc" /><path
       style="fill:#ff0000;fill-opacity:1;stroke:none;stroke-width:0.1;stroke-dasharray:none"
       d="m 110.48416,140.86302 c -0.12083,0.0166 -0.15125,0.0745 -0.20476,0.25328 l 0.0709,0.15863 0.11566,0.0788 0.22044,0.006 c 0.0837,-0.0121 0.15868,-0.0454 0.19218,-0.18088 v -0.14696 c -0.0116,-0.0764 -0.0474,-0.14334 -0.18652,-0.16957 -0.10157,-0.006 -0.14486,-0.004 -0.2079,7e-4 z"
       id="path3"
       sodipodi:nodetypes="ccccccccc" /><path
       style="fill:#ffffff;fill-opacity:1;stroke:none;stroke-width:0.1;stroke-dasharray:none"
       d="m 109.10585,139.92517 c -0.0638,-0.0399 -0.0883,-0.018 -0.11467,0.001 l -0.0489,0.10335 v 2.11034 l 0.0386,0.1132 c 0.12858,0.0791 0.15499,-0.0514 0.16116,-0.0892 v -2.14231 z m -0.68181,-0.008 c -0.0647,0.007 -0.11375,0.033 -0.1236,0.10588 v 2.24189 c 0.029,0.0477 0.0739,0.0584 0.11913,0.0684 0.0389,-0.006 0.0765,-0.0193 0.1099,-0.0531 l -0.001,-0.52096 -0.005,-1.73872 c -0.003,-0.0678 -0.0472,-0.0901 -0.0994,-0.10339 z"
       id="path5"
       sodipodi:nodetypes="cccccccccccccccc" /><path
       style="fill:#ffffff;fill-opacity:1;stroke:none;stroke-width:0.1;stroke-dasharray:none"
       d="m 107.83027,139.91778 -0.0692,-0.003 c -0.0802,0.0508 -0.0587,0.0938 -0.074,0.1396 v 2.11034 c 0.006,0.0464 0.008,0.0948 0.0621,0.10915 l 0.0871,0.003 c 0.0262,-0.0218 0.0531,-0.0423 0.0579,-0.10161 l -0.001,-2.11907 c -0.0209,-0.111 -0.0419,-0.13064 -0.0628,-0.13839 z"
       id="path5-5"
       sodipodi:nodetypes="cccccccccc" /><path
       style="fill:#ffffff;fill-opacity:1;stroke:none;stroke-width:0.1;stroke-dasharray:none"
       d="m 108.79809,139.94724 c -0.0277,-0.0323 -0.0603,-0.0432 -0.10447,-0.004 -0.0399,0.0253 -0.0527,0.0642 -0.0719,0.0999 v 2.11034 c 0.0136,0.045 0.0412,0.076 0.0879,0.0879 l 0.0742,0.002 c 0.0262,-0.0181 0.0518,-0.0378 0.0725,-0.0722 -0.003,-0.68052 0.007,-1.4767 0.004,-2.11038 -0.009,-0.0401 -0.0256,-0.0789 -0.0624,-0.11353 z"
       id="path6"
       sodipodi:nodetypes="ccccccccc" /><path
       style="fill:#ffffff;fill-opacity:1;stroke:none;stroke-width:0.1;stroke-dasharray:none"
       d="m 107.15503,139.802 v 2.55978 h 0.51249 l -0.0331,-2.44285 -0.39757,-0.006 V 139.796 c -0.0398,-0.023 -0.064,-0.0149 -0.0818,0.006 z"
       id="path7"
       sodipodi:nodetypes="ccccccc" /><path
       style="fill:#ffffff;fill-opacity:1;stroke:none;stroke-width:0.0841282;stroke-dasharray:none"
       d="m 107.19494,142.39543 h 0.44293 l -0.0207,0.26872 -0.37827,-0.004 z"
       id="path8"
       sodipodi:nodetypes="ccccc" /><path
       style="fill:#ffffff;fill-opacity:1;stroke:none;stroke-width:0.142036;stroke-dasharray:none"
       d="m 107.33609,142.68483 0.21911,-0.004 -0.0482,0.78928 -0.122,-0.007 z"
       id="path9"
       sodipodi:nodetypes="ccccc" /><path
       style="fill:#ffffff;fill-opacity:1;stroke:none;stroke-width:0.1;stroke-dasharray:none"
       d="m 110.15868,141.021 h 0.86675 v 0.12863 h -0.8799 z"
       id="path10" /><path
       style="fill:#ffffff;fill-opacity:1;stroke:none;stroke-width:0.1;stroke-dasharray:none"
       d="m 110.54017,141.46826 v -0.74689 h 0.10231 v 0.74836 z"
       id="path11" /></g></svg>
