<?xml version="1.0" encoding="UTF-8" standalone="no"?>
<!-- Created with Inkscape (http://www.inkscape.org/) -->

<svg
   width="50"
   height="50"
   viewBox="0 0 13.229166 13.229167"
   version="1.1"
   id="svg1"
   xml:space="preserve"
   inkscape:version="1.3.1 (91b66b0783, 2023-11-16)"
   sodipodi:docname="Sala de Calderas.svg"
   xmlns:inkscape="http://www.inkscape.org/namespaces/inkscape"
   xmlns:sodipodi="http://sodipodi.sourceforge.net/DTD/sodipodi-0.dtd"
   xmlns="http://www.w3.org/2000/svg"
   xmlns:svg="http://www.w3.org/2000/svg"><sodipodi:namedview
     id="namedview1"
     pagecolor="#ffffff"
     bordercolor="#000000"
     borderopacity="0.25"
     inkscape:showpageshadow="2"
     inkscape:pageopacity="0.0"
     inkscape:pagecheckerboard="0"
     inkscape:deskcolor="#d1d1d1"
     inkscape:document-units="mm"
     inkscape:zoom="2.0000001"
     inkscape:cx="-51.249998"
     inkscape:cy="9.2499996"
     inkscape:window-width="1366"
     inkscape:window-height="705"
     inkscape:window-x="-8"
     inkscape:window-y="-8"
     inkscape:window-maximized="1"
     inkscape:current-layer="layer4" /><defs
     id="defs1" /><g
     inkscape:groupmode="layer"
     id="layer4"
     inkscape:label="Capa 2"
     style="display:inline"
     transform="matrix(2.659605,0,0,2.659605,-364.68878,-291.52293)"><path
       style="fill:#0000ff;stroke:#000000;stroke-width:0.1"
       d="m 137.22,114.49389 h 4.83619 v -4.7083 h -4.84418 z"
       id="path1" /><path
       style="fill:#ffffff;fill-opacity:1;stroke:none;stroke-width:0.1"
       d="m 138.06566,113.83945 h 3.04099 v 0.28262 h -3.01838 z"
       id="path2" /><path
       style="fill:#ffffff;fill-opacity:1;stroke:none;stroke-width:0.1"
       d="m 139.16247,113.7145 c -0.33463,-0.0739 -0.65676,-0.14819 -0.77194,-0.5382 -0.22437,-0.28633 -0.0137,-0.78838 -0.003,-1.17245 0.0502,0.0834 0.0909,0.17554 0.18785,0.21583 0.0328,-0.0373 0.079,-0.0224 0.0879,-0.15188 0.002,-0.24688 0.11425,-0.46873 -0.002,-0.74273 0.0802,0.0483 0.15229,0.114 0.2099,0.21115 0.0608,0.0576 0.1539,0.0383 0.19367,-0.0928 0.0517,-0.2241 0.006,-0.47256 -0.0457,-0.72254 0.0626,0.0542 0.15031,0.0718 0.17587,0.17986 0.0287,0.0323 0.0603,0.0504 0.10391,0.008 0.11006,-0.20382 0.12941,-0.50767 0.16787,-0.83134 0.0915,0.18051 0.20167,0.35958 0.24781,0.54357 0.0569,0.11515 0.0274,0.15632 0.19982,0.21185 0.0654,-0.007 0.0726,-0.0621 0.0959,-0.10391 0.005,0.0764 0.0186,0.15067 0.072,0.21583 0.0367,-0.009 0.0707,-0.0345 0.0999,-0.0919 -0.0229,0.19478 -0.006,0.23127 0.016,0.24381 0.0649,0.009 0.12624,-0.005 0.17986,-0.0679 -0.0554,0.1899 -0.0457,0.26924 0.031,0.46957 0.019,0.0293 0.0433,0.0371 0.0698,0.0363 0.0708,-0.0219 0.21663,-0.0511 0.2599,-0.097 -0.17256,0.68425 -0.0653,0.73294 -0.0229,0.93899 0.12461,0.0159 0.22668,-0.0295 0.32374,-0.21747 -0.0107,0.18534 0.003,0.40892 -0.042,0.54024 -0.0718,0.41848 -0.30264,0.67792 -0.59953,0.87131 l -0.40616,0.14899 z"
       id="path3"
       sodipodi:nodetypes="cccccccccccccccccccccccccccc" /><path
       style="fill:#0000ff;fill-opacity:1;stroke:none;stroke-width:0.1"
       d="m 139.48483,113.62128 c -0.29795,-0.0642 -0.37396,-0.30788 -0.40065,-0.44296 -0.10089,-0.43075 0.0223,-0.61844 0.0708,-0.56981 0.0191,0.20459 -0.0382,0.31703 0.23196,0.36965 -0.0521,-0.23684 -0.0452,-0.35793 0.0713,-0.41826 0.0185,0.12689 -0.0379,0.2497 0.12671,0.32463 0.0466,0.0132 0.11534,0.0474 0.1761,-0.11971 0.0939,-0.25687 0.1023,-0.59929 0.1257,-0.92668 0.0634,0.28056 0.15132,0.54484 0.17247,0.8536 0.0556,-0.0221 0.11579,-0.0103 0.14909,-0.19587 0.0268,0.10526 0.10662,0.0361 0.038,0.45604 -0.10969,0.3038 -0.17043,0.66354 -0.5408,0.66942 z"
       id="path4"
       sodipodi:nodetypes="ccccccccccccc" /></g></svg>
